<?xml version="1.0" encoding="UTF-8"?>
<svg width="16" height="16" version="1.1" xmlns="http://www.w3.org/2000/svg" xmlns:xlink="http://www.w3.org/1999/xlink">
 <defs>
  <linearGradient id="linearGradient3882" x1="17.274" x2="65.61" y1="26.482" y2="74.818" gradientUnits="userSpaceOnUse">
   <stop stop-color="#ffa603" stop-opacity=".98039" offset="0"/>
   <stop stop-color="#ff3c03" stop-opacity=".98039" offset="1"/>
  </linearGradient>
  <linearGradient id="linearGradient3884" x1="17.274" x2="65.61" y1="26.482" y2="74.818" gradientUnits="userSpaceOnUse">
   <stop stop-color="#c49317" offset="0"/>
   <stop stop-color="#9f2424" offset="1"/>
  </linearGradient>
 </defs>
 <g transform="translate(0,-48)">
  <path transform="matrix(.24331 0 0 .24331 -.51601 45.295)" d="m65 44a30 30 0 0 1-30 30 30 30 0 0 1-30-30 30 30 0 0 1 30-30 30 30 0 0 1 30 30z" fill="url(#linearGradient3882)" stroke="url(#linearGradient3884)" stroke-width="4.7409"/>
  <g transform="translate(-.12823 47.96)">
   <g fill="#fff" stroke="#fff" stroke-linejoin="round">
    <path d="m8.0028 8.9542c-0.17606-0.0028377-0.24989-0.16358-0.3721-0.37494-0.31124-0.53827-0.51755-2.5001-0.51755-2.5001l-0.22788-2.4973s-0.00189-0.27548 0.34976-0.46706c0.26083-0.1421 0.50898-0.11145 0.76777-0.11605 0.40006-0.00712 0.98138 0.074236 1.0297 0.32946 0 0 0.073787-0.067479 0.08237 0.38221 0.018969 0.99386-0.20819 2.4105-0.20819 2.4105s-0.18887 1.6639-0.51436 2.4654c-0.089822 0.22119-0.2109 0.37081-0.38948 0.36794z" stroke-width="1px"/>
    <circle cx="8.0035" cy="11.996" r=".99638" opacity=".95" stroke-linecap="round"/>
   </g>
  </g>
 </g>
</svg>
