<?xml version="1.0" encoding="UTF-8"?>
<svg width="16" height="16" version="1.1" xmlns="http://www.w3.org/2000/svg">
 <g transform="translate(0,-48)" stroke-linejoin="round">
  <ellipse cx="8.0272" cy="56.027" rx="7.2109" ry="7.2109" fill="#fff" fill-rule="evenodd" stroke="#fff" stroke-linecap="round" stroke-width="1.5"/>
  <path d="m7.8875 57.077c-0.17606-0.002837-0.24989-0.16358-0.3721-0.37494-0.31124-0.53828-0.51755-2.5001-0.51755-2.5001l-0.22788-2.4973s-0.00189-0.27548 0.34976-0.46706c0.26083-0.1421 0.50898-0.11145 0.76777-0.11605 0.40006-0.0071 0.98138 0.07424 1.0297 0.32946 0 0 0.073787-0.06748 0.08237 0.38221 0.018969 0.99386-0.20819 2.4105-0.20819 2.4105s-0.18887 1.6639-0.51436 2.4654c-0.089822 0.22119-0.2109 0.37082-0.38948 0.36794z" fill="#38383d" stroke="#38383d" stroke-width="1px"/>
  <circle cx="7.8883" cy="60.119" r=".99638" fill="#38383d" opacity=".95" stroke="#38383d" stroke-linecap="round"/>
 </g>
</svg>
