<?xml version="1.0" encoding="UTF-8"?>
<svg width="16" height="16" version="1.1" xmlns="http://www.w3.org/2000/svg">
 <g transform="translate(0,-48)">
  <ellipse cx="8.0114" cy="56" rx="7.2386" ry="7.2273" fill="#f9f9fa" fill-opacity=".0039216" fill-rule="evenodd" stroke="#fff" stroke-linecap="round" stroke-linejoin="round" stroke-width="1.5"/>
  <g transform="matrix(1.0001 0 0 1 -.0010577 48.003)" stroke-width=".99994">
   <g fill="#fff" stroke="#fff" stroke-linejoin="round">
    <path d="m8.0028 8.9542c-0.17606-0.0028377-0.24989-0.16358-0.3721-0.37494-0.31124-0.53827-0.51755-2.5001-0.51755-2.5001l-0.22788-2.4973s-0.00189-0.27548 0.34976-0.46706c0.26083-0.1421 0.50898-0.11145 0.76777-0.11605 0.40006-0.00712 0.98138 0.074236 1.0297 0.32946 0 0 0.073787-0.067479 0.08237 0.38221 0.018969 0.99386-0.20819 2.4105-0.20819 2.4105s-0.18887 1.6639-0.51436 2.4654c-0.089822 0.22119-0.2109 0.37081-0.38948 0.36794z" stroke-width=".99994px"/>
    <circle cx="8.0035" cy="11.996" r=".99638" opacity=".95" stroke-linecap="round" stroke-width=".99994"/>
   </g>
  </g>
 </g>
</svg>
