<?xml version="1.0" encoding="UTF-8"?>
<svg width="64px" height="64px" version="1.1" xmlns="http://www.w3.org/2000/svg" xmlns:osb="http://www.openswatchbook.org/uri/2009/osb" xmlns:xlink="http://www.w3.org/1999/xlink">
 <defs>
  <linearGradient id="linearGradient3882" x1="17.95" x2="55.26" y1="27.159" y2="64.469" gradientUnits="userSpaceOnUse">
   <stop stop-color="#646464" offset="0"/>
   <stop stop-color="#484848" offset=".51232"/>
   <stop stop-color="#363636" offset="1"/>
  </linearGradient>
  <linearGradient id="linearGradient3884" x1="17.95" x2="55.26" y1="27.159" y2="64.469" gradientUnits="userSpaceOnUse">
   <stop stop-color="#404040" offset="0"/>
   <stop stop-color="#161616" offset="1"/>
  </linearGradient>
 </defs>
 <path transform="matrix(1.0099 0 0 1.0099 -3.3462 -12.435)" d="m65 44a30 30 0 1 1-60 0 30 30 0 1 1 60 0z" fill="url(#linearGradient3882)" stroke="url(#linearGradient3884)" stroke-width="2.4894"/>
 <path d="m32.566 36.801s1.9137 0.28471-0.06222 0.28721c-1.9732 0.0025-2.2614 0.24859-2.512-1.7435-1.0301-8.1877-1.0489-8.6847-1.7837-16.037-0.62521-6.2558 0.8729-5.6052 3.8098-5.591 2.7838 0.01345 4.4425-0.43882 3.7613 5.591-0.81552 7.2186-0.85563 7.5908-1.7107 16.058-0.26832 2.6571-1.5026 1.4351-1.5026 1.4351z" fill="#fff" stroke="#fff" stroke-linejoin="round" stroke-width="3.1701px"/>
 <path d="m30.464 42.788a4.2505 4.2515 0 0 1 5.4742 2.3598 4.2505 4.2515 0 0 1-2.2678 5.5139 4.2505 4.2515 0 0 1-5.5497-2.1762 4.2505 4.2515 0 0 1 2.083-5.5864l1.7979 3.8524z" fill="#fff" opacity=".95" stroke="#fff" stroke-linecap="round" stroke-linejoin="round"/>
</svg>
