<?xml version="1.0" encoding="UTF-8"?>
<svg width="32px" height="32px" version="1.1" xmlns="http://www.w3.org/2000/svg">
 <path d="m25.5 20.384v1.8293c0 2.3748-1.9118 4.2866-4.2866 4.2866h-1.3537m-5.5569 0h-9.5162c-2.3748 0-4.2866-1.9118-4.2866-4.2866v-16.427c0-2.3748 1.9118-4.2866 4.2866-4.2866h16.427c2.3748 0 4.2965 1.9118 4.2866 4.2866l-0.03157 7.526" fill="none" stroke="#bfb9ff" stroke-linecap="round"/>
 <path d="m22.464 14c0 1.1395-0.10007 2.2749-0.57055 3.2437-0.29163 0.60051-1.5582 1.8392-2.4443 2.7711-1.0557 1.1102-1.9677 2.4696-3.4541 2.9651-0.94127 0.31376-1.9483 0.48368-2.995 0.48368-5.2269 0-9.4641-4.237-9.4641-9.4636-1e-7 -5.2266 4.2372-9.4636 9.4641-9.4636 5.2269 3e-7 9.4641 4.237 9.4641 9.4636z" fill="none" stroke="#bfb9ff" stroke-width="1.0724"/>
 <path d="m11.788 14.537-0.32894-3.7943q-0.09251-1.109-0.09251-1.5922 0-0.65747 0.44202-1.0219 0.45229-0.3723 1.1821-0.3723 0.88403 0 1.1821 0.47528 0.2981 0.46736 0.2981 1.3545 0 0.52281-0.07196 1.0615l-0.44202 3.9052q-0.07196 0.69708-0.30838 1.0694-0.23643 0.3723-0.78124 0.3723-0.55509 0-0.77096-0.35646-0.21587-0.36438-0.30838-1.1011zm1.141 5.2122q-0.62705 0-1.0999-0.30893-0.46257-0.31685-0.46257-0.87927 0-0.49112 0.44202-0.83174 0.45229-0.34854 1.0999-0.34854t1.0999 0.34854q0.46257 0.34062 0.46257 0.83174 0 0.5545-0.46257 0.87135-0.46257 0.31685-1.0793 0.31685z" fill="#bfb9ff"/>
 <rect transform="rotate(-48.113)" x="-7.9703" y="28.059" width="18.671" height="4.3003" fill="none" stroke="#bfb9ff" stroke-linecap="round" stroke-linejoin="round" stroke-width=".91843"/>
 <path d="m15.405 24.584-3.0023 6.4041 6.4869-3.2838z" fill="none" stroke="#bfb9ff" stroke-linejoin="round" stroke-width=".63184px"/>
 <g>
  <path d="m13.6 28.363-1.428 2.8565 2.9623-1.5333z" fill="#bfb9ff" stroke="#bfb9ff" stroke-width=".59221px"/>
  <path d="m-119.36 16.96v29.148h29.134z" fill="#9889f8" stroke="#625fcd" stroke-linecap="round" stroke-linejoin="round" stroke-width="1.2"/>
  <path d="m-115.9 26.439v16.184h16.176z" fill="#fff" stroke="#625fcd" stroke-linecap="round" stroke-width="1.3906"/>
 </g>
</svg>
