<?xml version="1.0" encoding="UTF-8"?>
<svg width="32px" height="32px" version="1.1" xmlns="http://www.w3.org/2000/svg" xmlns:osb="http://www.openswatchbook.org/uri/2009/osb" xmlns:xlink="http://www.w3.org/1999/xlink">
 <defs>
  <linearGradient id="linearGradient9920" x1="17.95" x2="55.26" y1="27.159" y2="64.469" gradientUnits="userSpaceOnUse">
   <stop stop-color="#bfb5fb" offset="0"/>
   <stop stop-color="#998af8" offset=".51232"/>
   <stop stop-color="#604bb5" offset="1"/>
  </linearGradient>
  <linearGradient id="linearGradient9922" x1="17.95" x2="55.26" y1="27.159" y2="64.469" gradientUnits="userSpaceOnUse">
   <stop stop-color="#a597f9" offset="0"/>
   <stop stop-color="#3c327e" offset="1"/>
  </linearGradient>
 </defs>
 <g>
  <rect x=".5" y="1.5" width="25" height="25" rx="4.2866" ry="4.2866" fill="#ececff" stroke="#6357ab" stroke-linecap="round"/>
  <g transform="matrix(1.0195 0 0 1.0194 -1.8324 -5.083)">
   <circle transform="matrix(.30945 0 0 .30945 3.7189 5.1037)" cx="35" cy="44" r="30" fill="url(#linearGradient9920)" stroke="url(#linearGradient9922)" stroke-width="3.3996"/>
   <text transform="scale(1.1391 .87786)" x="9.684083" y="27.544718" fill="#000000" font-family="'Arial Rounded MT Bold'" font-weight="bold" letter-spacing="0px" stroke-width=".98093" word-spacing="0px" style="line-height:0%" xml:space="preserve"><tspan x="9.684083" y="27.544718" fill="#ffffff" font-size="18.128px" stroke-width=".98093" style="line-height:1.25">!</tspan></text>
  </g>
  <g>
   <g stroke="#6357ab">
    <rect transform="rotate(-48.113)" x="-7.9703" y="28.059" width="18.671" height="4.3003" fill="#c8c8ff" stroke-linecap="round" stroke-linejoin="round" stroke-width=".91843"/>
    <path d="m15.405 24.584-3.0023 6.4041 6.4869-3.2838z" fill="#fff" stroke-linejoin="round" stroke-width=".63184px"/>
    <path d="m13.6 28.363-1.428 2.8565 2.9623-1.5333z" fill="#6357ab" stroke-width=".59221px"/>
   </g>
   <path d="m-119.36 16.96v29.148h29.134z" fill="#9889f8" stroke="#625fcd" stroke-linecap="round" stroke-linejoin="round" stroke-width="1.2"/>
   <path d="m-115.9 26.439v16.184h16.176z" fill="#fff" stroke="#625fcd" stroke-linecap="round" stroke-width="1.3906"/>
  </g>
 </g>
</svg>
