<?xml version="1.0" encoding="UTF-8" standalone="no"?>
<!-- Created with Inkscape (http://www.inkscape.org/) -->

<svg
   xmlns:dc="http://purl.org/dc/elements/1.1/"
   xmlns:cc="http://creativecommons.org/ns#"
   xmlns:rdf="http://www.w3.org/1999/02/22-rdf-syntax-ns#"
   xmlns:svg="http://www.w3.org/2000/svg"
   xmlns="http://www.w3.org/2000/svg"
   xmlns:sodipodi="http://sodipodi.sourceforge.net/DTD/sodipodi-0.dtd"
   xmlns:inkscape="http://www.inkscape.org/namespaces/inkscape"
   width="64"
   height="64"
   viewBox="0 0 16.933332 16.933333"
   version="1.1"
   id="svg898"
   inkscape:version="0.92.2 5c3e80d, 2017-08-06"
   sodipodi:docname="restoreSessionPgBkg.svg">
  <defs
     id="defs892" />
  <sodipodi:namedview
     id="base"
     pagecolor="#f9f9fa"
     bordercolor="#666666"
     borderopacity="1.0"
     inkscape:pageopacity="1"
     inkscape:pageshadow="2"
     inkscape:zoom="11.313708"
     inkscape:cx="39.280674"
     inkscape:cy="30.119316"
     inkscape:document-units="mm"
     inkscape:current-layer="layer1"
     showgrid="false"
     units="px"
     height="64px"
     inkscape:snap-global="false"
     inkscape:window-width="2048"
     inkscape:window-height="1026"
     inkscape:window-x="0"
     inkscape:window-y="1"
     inkscape:window-maximized="1"
     showguides="false">
    <inkscape:grid
       type="xygrid"
       id="grid1446"
       empspacing="2"
       dotted="false" />
  </sodipodi:namedview>
  <metadata
     id="metadata895">
    <rdf:RDF>
      <cc:Work
         rdf:about="">
        <dc:format>image/svg+xml</dc:format>
        <dc:type
           rdf:resource="http://purl.org/dc/dcmitype/StillImage" />
        <dc:title />
      </cc:Work>
    </rdf:RDF>
  </metadata>
  <g
     inkscape:label="Layer 1"
     inkscape:groupmode="layer"
     id="layer1"
     transform="translate(0,-280.06666)">
    <g
       id="g1104"
       transform="translate(8.4666666,8.5380889)">
      <circle
         r="1.9313139"
         cy="282.14465"
         cx="2.0839179"
         style="fill:#f9f9fa;fill-opacity:1;fill-rule:nonzero;stroke:#ededf0;stroke-width:0.30520779;stroke-miterlimit:4;stroke-dasharray:none;stroke-dashoffset:0;stroke-opacity:1"
         id="path3004" />
      <path
         style="fill:#ededf0;fill-opacity:1;fill-rule:nonzero;stroke:#ededf0;stroke-width:0.53455663;stroke-linecap:square;stroke-linejoin:miter;stroke-miterlimit:4;stroke-dashoffset:9.69000244;stroke-opacity:1"
         d="m 2.21817,283.16361 c 0,0.0291 -0.015027,0.0768 -0.039322,0.0959 -0.024295,0.0191 -0.057858,0.0309 -0.094931,0.0309 -0.037073,0 -0.070636,-0.0118 -0.094931,-0.0309 -0.024295,-0.0191 -0.039322,-0.0668 -0.039322,-0.0959 0,-0.0292 0.010775,-0.064 0.03507,-0.0831 0.024295,-0.0191 0.057858,-0.0352 0.094931,-0.0352 0.037073,0 0.066384,0.0288 0.090679,0.0479 0.024295,0.0191 0.047826,0.0412 0.047826,0.0704 z"
         id="path2998"
         inkscape:connector-curvature="0"
         sodipodi:nodetypes="sssssssss" />
      <path
         style="fill:#ededf0;fill-opacity:1;stroke:#ededf0;stroke-width:0.26458332px;stroke-linecap:butt;stroke-linejoin:round;stroke-opacity:1"
         d="m 2.0846475,282.39713 -0.1664844,-0.0992 -0.1029199,-0.66149 -0.060293,-0.64374 0.1265573,-0.11508 0.2031401,-0.0562 0.1873883,0.0617 0.1408501,0.10964 -0.046579,0.63777 -0.1190826,0.66931 z"
         id="path3000"
         inkscape:connector-curvature="0"
         sodipodi:nodetypes="ccccccccccc" />
    </g>
    <rect
       style="fill:#f8f8f8;fill-opacity:0.78431373;stroke:#ededf0;stroke-width:0.43700001;stroke-linecap:butt;stroke-miterlimit:4;stroke-dasharray:0.437, 0.437;stroke-dashoffset:0;stroke-opacity:1"
       id="rect3765"
       width="3.7743602"
       height="3.2787395"
       x="4.4519701"
       y="280.53802"
       inkscape:export-xdpi="90"
       inkscape:export-ydpi="90" />
    <rect
       style="fill:#ededf0;fill-opacity:1;fill-rule:nonzero;stroke:#ededf0;stroke-width:0.1439172;stroke-miterlimit:4;stroke-dasharray:none;stroke-dashoffset:0;stroke-opacity:1"
       id="rect3791"
       width="2.7708144"
       height="0.60259515"
       x="4.9434671"
       y="281.00684" />
    <path
       style="fill:none;fill-rule:evenodd;stroke:#ededf0;stroke-width:0.43709168;stroke-linecap:butt;stroke-linejoin:miter;stroke-miterlimit:4;stroke-dasharray:none;stroke-opacity:1"
       d="m 4.4570921,281.77123 8e-7,-1.22732 3.7723793,-0.0129 8e-7,1.2144"
       id="path2577"
       inkscape:connector-curvature="0"
       sodipodi:nodetypes="cccc" />
    <g
       id="g1120">
      <circle
         id="path4417"
         style="fill:#f9f9fa;fill-opacity:1;fill-rule:nonzero;stroke:#ededf0;stroke-width:0.47624999;stroke-linecap:square;stroke-linejoin:bevel;stroke-miterlimit:4;stroke-dasharray:none;stroke-dashoffset:0;stroke-opacity:1"
         cx="10.583333"
         cy="282.18332"
         r="1.8785417" />
      <path
         sodipodi:nodetypes="ccscscc"
         inkscape:connector-curvature="0"
         id="path4946"
         d="m 8.760202,281.90309 0.2985793,0.25809 c 0.2371476,0.12276 0.6006667,0.1609 0.7942987,0.20833 0.204657,0.0501 0.437782,0.0543 0.72082,0.0535 0,0 0.45263,-0.0199 0.836245,-0.0853 0.474312,-0.0809 0.801966,-0.25882 0.801966,-0.25882 l 0.176374,-0.17586"
         style="fill:none;stroke:#ededf0;stroke-width:0.31750003;stroke-linecap:butt;stroke-linejoin:miter;stroke-miterlimit:4;stroke-dasharray:none;stroke-opacity:1" />
      <path
         sodipodi:nodetypes="ccscscc"
         inkscape:connector-curvature="0"
         id="path4946-6"
         d="m 8.9234355,281.06881 0.3734999,0.2456 c 0.2478362,0.12096 0.3509317,0.0985 0.5445636,0.14589 0.204657,0.0501 0.462756,0.0543 0.745793,0.0535 0,0 0.308111,0.006 0.686404,-0.0853 0.386905,-0.0934 0.402391,-0.12147 0.402391,-0.12147 l 0.451082,-0.25078"
         style="fill:none;stroke:#ededf0;stroke-width:0.31750003;stroke-linecap:butt;stroke-linejoin:miter;stroke-miterlimit:4;stroke-dasharray:none;stroke-opacity:1" />
      <path
         sodipodi:nodetypes="ccscscc"
         inkscape:connector-curvature="0"
         id="path4946-6-0"
         d="M 8.8682898,282.81214 9.4155,283.09421 c 0.253101,0.12054 0.3583865,0.11057 0.5561318,0.15783 0.2090042,0.05 0.3833222,0.0541 0.6723722,0.0533 0,0 0.21264,0.0309 0.598969,-0.0601 0.395124,-0.093 0.48745,-0.15837 0.48745,-0.15837 l 0.639193,-0.37434"
         style="fill:none;stroke:#ededf0;stroke-width:0.32029545;stroke-linecap:butt;stroke-linejoin:miter;stroke-miterlimit:4;stroke-dasharray:none;stroke-opacity:1" />
      <path
         sodipodi:nodetypes="ccccc"
         inkscape:connector-curvature="0"
         id="path4984"
         d="m 10.20689,280.41802 c -0.140597,0.44652 -0.170699,0.59116 -0.2866719,1.1004 -0.078726,0.34258 -0.073862,0.51377 -0.075444,0.88499 0.00345,0.31038 0.021498,0.51277 0.1111839,0.91727 0.051427,0.25744 0.122942,0.41144 0.238446,0.70601"
         style="fill:none;stroke:#ededf0;stroke-width:0.31750003;stroke-linecap:butt;stroke-linejoin:miter;stroke-miterlimit:4;stroke-dasharray:none;stroke-opacity:1" />
      <path
         sodipodi:nodetypes="ccccc"
         inkscape:connector-curvature="0"
         id="path4984-8"
         d="m 11.049746,280.43675 c 0.140598,0.44652 0.170699,0.59116 0.286672,1.1004 0.07873,0.34258 0.07386,0.51377 0.07544,0.88499 -0.0034,0.31038 -0.0215,0.51277 -0.111184,0.91727 -0.05143,0.25744 -0.122942,0.41144 -0.238445,0.70601"
         style="fill:none;stroke:#ededf0;stroke-width:0.31750003;stroke-linecap:butt;stroke-linejoin:miter;stroke-miterlimit:4;stroke-dasharray:none;stroke-opacity:1" />
    </g>
    <path
       style="fill:none;stroke:#ededf0;stroke-width:0.82020831;stroke-linecap:round;stroke-linejoin:miter;stroke-miterlimit:4;stroke-dasharray:none;stroke-opacity:1"
       d="m 0.7182654,289.21652 2.843574,2.87866"
       id="path4413"
       inkscape:connector-curvature="0"
       sodipodi:nodetypes="cc" />
    <circle
       id="path3773"
       style="fill:#f9f9fa;fill-opacity:1;fill-rule:nonzero;stroke:#ededf0;stroke-width:0.3622632;stroke-miterlimit:4;stroke-dasharray:none;stroke-dashoffset:0;stroke-opacity:1"
       cx="6.3499999"
       cy="286.41666"
       r="1.9355351" />
    <circle
       style="fill:#ededf0;fill-opacity:1;fill-rule:nonzero;stroke:#ededf0;stroke-width:0.30453542;stroke-miterlimit:4;stroke-dasharray:none;stroke-dashoffset:0;stroke-opacity:1"
       id="path5431"
       cx="7.0646586"
       cy="285.82541"
       r="0.22035322" />
    <path
       sodipodi:nodetypes="cccc"
       inkscape:connector-curvature="0"
       id="path5433"
       d="m 5.2778595,286.6555 c 0.01724,0.20276 0.05904,0.34455 0.161671,0.50576 0.136685,0.17233 0.144376,0.14817 0.247361,0.2364 0.228013,0.15847 0.379558,0.18753 0.715413,0.20201"
       style="fill:none;stroke:#ededf0;stroke-width:0.25491723;stroke-linecap:round;stroke-linejoin:miter;stroke-miterlimit:4;stroke-dasharray:none;stroke-opacity:1" />
    <path
       style="fill:none;stroke:#ededf0;stroke-width:0.25498882;stroke-linecap:round;stroke-linejoin:miter;stroke-miterlimit:4;stroke-dasharray:none;stroke-opacity:1;marker-start:none;marker-mid:none;marker-end:none"
       d="m 7.4193845,286.6546 c -0.01688,0.20315 -0.05782,0.34521 -0.158331,0.50672 -0.13386,0.17267 -0.123305,0.14846 -0.224163,0.23686 -0.223301,0.15877 -0.426201,0.19529 -0.70063,0.20239"
       id="path6091"
       inkscape:connector-curvature="0"
       sodipodi:nodetypes="cccc" />
    <g
       transform="matrix(0.24995358,0,0,0.26461505,-12.239973,282.02129)"
       id="g3095"
       style="stroke-width:1.02878678">
      <rect
         style="fill:#f9f9fa;fill-opacity:1;stroke:#ededf0;stroke-width:1.80339098;stroke-linecap:round;stroke-linejoin:round;stroke-miterlimit:4;stroke-dasharray:none;stroke-dashoffset:0;stroke-opacity:1"
         id="rect3768"
         width="14.24707"
         height="9.5606298"
         x="49.89209"
         y="10.513072" />
      <rect
         style="fill:#c8c8c8;fill-opacity:0.98039216;fill-rule:nonzero;stroke:#ededf0;stroke-width:1.75186539;stroke-linecap:square;stroke-linejoin:miter;stroke-miterlimit:4;stroke-dasharray:none;stroke-dashoffset:0;stroke-opacity:1"
         id="rect3780"
         width="5.5013442"
         height="1.2523384"
         x="54.242588"
         y="21.344807" />
      <rect
         style="fill:#c8c8c8;fill-opacity:0.98039216;fill-rule:nonzero;stroke:#ededf0;stroke-width:1.28813636;stroke-linecap:square;stroke-linejoin:miter;stroke-miterlimit:4;stroke-dasharray:none;stroke-dashoffset:0;stroke-opacity:1"
         id="rect3782"
         width="12.747017"
         height="0.69065404"
         x="50.597389"
         y="23.29278" />
    </g>
    <path
       sodipodi:type="star"
       style="opacity:1;fill:#f9f9fa;fill-opacity:1;fill-rule:evenodd;stroke:#ededf0;stroke-width:0.45918027;stroke-linecap:butt;stroke-linejoin:miter;stroke-miterlimit:4;stroke-dasharray:none;stroke-dashoffset:0;stroke-opacity:1"
       id="path3104"
       sodipodi:sides="5"
       sodipodi:cx="31.944799"
       sodipodi:cy="290.59558"
       sodipodi:r1="1.8193328"
       sodipodi:r2="0.90966648"
       sodipodi:arg1="0.66646527"
       sodipodi:arg2="1.2947838"
       inkscape:flatsided="false"
       inkscape:rounded="0"
       inkscape:randomized="0"
       d="m 33.374816,291.72031 -1.182113,-0.24949 -0.875688,0.83235 -0.128008,-1.20136 -1.062217,-0.57561 1.103001,-0.49299 0.219202,-1.1881 0.809699,0.89668 1.197691,-0.15867 -0.602579,1.04715 z"
       inkscape:transform-center-x="-0.099217346"
       inkscape:transform-center-y="-0.44689983"
       transform="matrix(0.91731242,0.25425001,-0.25425001,0.91731242,59.401108,12.036514)" />
    <rect
       y="284.69687"
       x="9.6572905"
       height="2.3812499"
       width="2.9104168"
       id="rect1097"
       style="opacity:1;fill:#f9f9fa;fill-opacity:1;fill-rule:evenodd;stroke:#ededf0;stroke-width:0.26458332;stroke-linecap:butt;stroke-linejoin:miter;stroke-miterlimit:4;stroke-dasharray:none;stroke-dashoffset:0;stroke-opacity:1" />
    <rect
       style="opacity:1;fill:#ededf0;fill-opacity:1;fill-rule:evenodd;stroke:#ededf0;stroke-width:0.26458332;stroke-linecap:butt;stroke-linejoin:miter;stroke-miterlimit:4;stroke-dasharray:none;stroke-dashoffset:0;stroke-opacity:1"
       id="rect1095"
       width="2.9104166"
       height="2.3812499"
       x="8.8635416"
       y="285.75522" />
    <rect
       style="opacity:1;fill:#ededf0;fill-opacity:1;fill-rule:evenodd;stroke:#ededf0;stroke-width:0.26458332;stroke-linecap:butt;stroke-linejoin:miter;stroke-miterlimit:4;stroke-dasharray:none;stroke-dashoffset:0;stroke-opacity:1"
       id="rect1099"
       width="3.4395833"
       height="1.8594198"
       x="4.6302085"
       y="290.77493" />
    <circle
       r="1.9313139"
       cy="282.21606"
       cx="2.0839179"
       style="fill:#ededf0;fill-opacity:1;fill-rule:nonzero;stroke:#ededf0;stroke-width:0.30520779;stroke-miterlimit:4;stroke-dasharray:none;stroke-dashoffset:0;stroke-opacity:1"
       id="circle1106" />
    <path
       style="fill:#ffffff;fill-opacity:1;fill-rule:nonzero;stroke:#ffffff;stroke-width:0.53455663;stroke-linecap:square;stroke-linejoin:miter;stroke-miterlimit:4;stroke-dashoffset:9.69000244;stroke-opacity:1"
       d="m 2.21817,283.23504 c 0,0.0291 -0.01503,0.0768 -0.03932,0.0959 -0.0243,0.0191 -0.05786,0.0309 -0.09493,0.0309 -0.03707,0 -0.07064,-0.0118 -0.09493,-0.0309 -0.0243,-0.0191 -0.03932,-0.0668 -0.03932,-0.0959 0,-0.0292 0.01078,-0.064 0.03507,-0.0831 0.02429,-0.0191 0.05786,-0.0352 0.09493,-0.0352 0.03707,0 0.06638,0.0288 0.09068,0.0479 0.0243,0.0191 0.04783,0.0412 0.04783,0.0704 z"
       id="path1108"
       inkscape:connector-curvature="0"
       sodipodi:nodetypes="sssssssss" />
    <path
       style="fill:#ffffff;fill-opacity:1;stroke:#ffffff;stroke-width:0.26458332px;stroke-linecap:butt;stroke-linejoin:round;stroke-opacity:1"
       d="m 2.084647,282.46856 -0.166484,-0.0992 -0.10292,-0.66149 -0.06029,-0.64374 0.126557,-0.11508 0.20314,-0.0562 0.187388,0.0617 0.140851,0.10964 -0.04658,0.63777 -0.119083,0.66931 z"
       id="path1110"
       inkscape:connector-curvature="0"
       sodipodi:nodetypes="ccccccccccc" />
    <g
       id="g1134"
       transform="translate(-8.4410016,12.700008)">
      <circle
         r="1.8785417"
         cy="282.18332"
         cx="10.583333"
         style="fill:#f9f9fa;fill-opacity:1;fill-rule:nonzero;stroke:#ededf0;stroke-width:0.47624999;stroke-linecap:square;stroke-linejoin:bevel;stroke-miterlimit:4;stroke-dasharray:none;stroke-dashoffset:0;stroke-opacity:1"
         id="circle1122" />
      <path
         style="fill:none;stroke:#ededf0;stroke-width:0.31750003;stroke-linecap:butt;stroke-linejoin:miter;stroke-miterlimit:4;stroke-dasharray:none;stroke-opacity:1"
         d="m 8.760202,281.90309 0.2985793,0.25809 c 0.2371476,0.12276 0.6006667,0.1609 0.7942987,0.20833 0.204657,0.0501 0.437782,0.0543 0.72082,0.0535 0,0 0.45263,-0.0199 0.836245,-0.0853 0.474312,-0.0809 0.801966,-0.25882 0.801966,-0.25882 l 0.176374,-0.17586"
         id="path1124"
         inkscape:connector-curvature="0"
         sodipodi:nodetypes="ccscscc" />
      <path
         style="fill:none;stroke:#ededf0;stroke-width:0.31750003;stroke-linecap:butt;stroke-linejoin:miter;stroke-miterlimit:4;stroke-dasharray:none;stroke-opacity:1"
         d="m 8.9234355,281.06881 0.3734999,0.2456 c 0.2478362,0.12096 0.3509317,0.0985 0.5445636,0.14589 0.204657,0.0501 0.462756,0.0543 0.745793,0.0535 0,0 0.308111,0.006 0.686404,-0.0853 0.386905,-0.0934 0.402391,-0.12147 0.402391,-0.12147 l 0.451082,-0.25078"
         id="path1126"
         inkscape:connector-curvature="0"
         sodipodi:nodetypes="ccscscc" />
      <path
         style="fill:none;stroke:#ededf0;stroke-width:0.32029545;stroke-linecap:butt;stroke-linejoin:miter;stroke-miterlimit:4;stroke-dasharray:none;stroke-opacity:1"
         d="M 8.8682898,282.81214 9.4155,283.09421 c 0.253101,0.12054 0.3583865,0.11057 0.5561318,0.15783 0.2090042,0.05 0.3833222,0.0541 0.6723722,0.0533 0,0 0.21264,0.0309 0.598969,-0.0601 0.395124,-0.093 0.48745,-0.15837 0.48745,-0.15837 l 0.639193,-0.37434"
         id="path1128"
         inkscape:connector-curvature="0"
         sodipodi:nodetypes="ccscscc" />
      <path
         style="fill:none;stroke:#ededf0;stroke-width:0.31750003;stroke-linecap:butt;stroke-linejoin:miter;stroke-miterlimit:4;stroke-dasharray:none;stroke-opacity:1"
         d="m 10.20689,280.41802 c -0.140597,0.44652 -0.170699,0.59116 -0.2866719,1.1004 -0.078726,0.34258 -0.073862,0.51377 -0.075444,0.88499 0.00345,0.31038 0.021498,0.51277 0.1111839,0.91727 0.051427,0.25744 0.122942,0.41144 0.238446,0.70601"
         id="path1130"
         inkscape:connector-curvature="0"
         sodipodi:nodetypes="ccccc" />
      <path
         style="fill:none;stroke:#ededf0;stroke-width:0.31750003;stroke-linecap:butt;stroke-linejoin:miter;stroke-miterlimit:4;stroke-dasharray:none;stroke-opacity:1"
         d="m 11.049746,280.43675 c 0.140598,0.44652 0.170699,0.59116 0.286672,1.1004 0.07873,0.34258 0.07386,0.51377 0.07544,0.88499 -0.0034,0.31038 -0.0215,0.51277 -0.111184,0.91727 -0.05143,0.25744 -0.122942,0.41144 -0.238445,0.70601"
         id="path1132"
         inkscape:connector-curvature="0"
         sodipodi:nodetypes="ccccc" />
    </g>
    <path
       style="fill:none;fill-rule:evenodd;stroke:#ededf0;stroke-width:0.5291667;stroke-linecap:butt;stroke-linejoin:miter;stroke-miterlimit:4;stroke-dasharray:none;stroke-opacity:1"
       d="m 5.4080317,290.77506 c 0,0 -0.030453,-0.58094 0,-0.85693 0.02151,-0.19494 0.1477948,-0.42698 0.2937759,-0.56302 0.175519,-0.16356 0.4125396,-0.27742 0.6562837,-0.27624 0.2208091,9.7e-4 0.4660475,0.13313 0.6288076,0.27743 0.1519718,0.13474 0.2826984,0.3274 0.2938466,0.52649 0.016767,0.29943 0,0.90994 0,0.90994"
       id="path1138"
       inkscape:connector-curvature="0"
       sodipodi:nodetypes="csssssc" />
    <g
       id="g1215"
       transform="translate(0,-0.26460052)">
      <rect
         inkscape:export-ydpi="90"
         inkscape:export-xdpi="90"
         y="289.25452"
         x="12.892006"
         height="3.3201544"
         width="3.8493211"
         id="rect3765-3"
         style="fill:#f8f8f8;fill-opacity:0.78431373;stroke:#ededf0;stroke-width:0.38401231;stroke-miterlimit:4;stroke-dasharray:none;stroke-dashoffset:0;stroke-opacity:1" />
      <rect
         y="289.66748"
         x="13.304985"
         height="0.64211231"
         width="3.0233622"
         id="rect3791-8"
         style="fill:#ededf0;fill-opacity:1;fill-rule:nonzero;stroke:#ededf0;stroke-width:0.15163764;stroke-miterlimit:4;stroke-dasharray:none;stroke-dashoffset:0;stroke-opacity:1" />
    </g>
    <path
       style="opacity:1;fill:#ededf0;fill-opacity:1;fill-rule:evenodd;stroke:#ededf0;stroke-width:0.26499999;stroke-linecap:round;stroke-linejoin:round;stroke-miterlimit:4;stroke-dasharray:none;stroke-dashoffset:0;stroke-opacity:1"
       d="m 13.884881,295.54755 c -0.440504,0 -0.795134,-0.35463 -0.795134,-0.79513 v -1.03654 c 0,-0.4405 0.35463,-0.79513 0.795134,-0.79513 h 1.858067 c 0.440504,0 0.795134,0.35463 0.795134,0.79513 v 1.03654 c 0,0.4405 -0.35463,0.79513 -0.795134,0.79513 h -0.541994"
       id="rect1225"
       inkscape:connector-curvature="0"
       sodipodi:nodetypes="csssssssc" />
    <path
       style="fill:#ededf0;fill-opacity:1;fill-rule:evenodd;stroke:#ededf0;stroke-width:0.26458332px;stroke-linecap:butt;stroke-linejoin:miter;stroke-opacity:1"
       d="m 13.903027,295.52666 -0.467722,1.09916 1.777343,-1.09915"
       id="path1227"
       inkscape:connector-curvature="0"
       sodipodi:nodetypes="ccc" />
    <circle
       r="0.22035322"
       cy="285.82538"
       cx="5.6642876"
       id="circle1248"
       style="fill:#ededf0;fill-opacity:1;fill-rule:nonzero;stroke:#ededf0;stroke-width:0.30453542;stroke-miterlimit:4;stroke-dasharray:none;stroke-dashoffset:0;stroke-opacity:1" />
    <path
       sodipodi:nodetypes="cc"
       inkscape:connector-curvature="0"
       id="path1416"
       d="m 3.5618394,289.21652 -2.843574,2.87866"
       style="fill:none;stroke:#ededf0;stroke-width:0.82020831;stroke-linecap:round;stroke-linejoin:miter;stroke-miterlimit:4;stroke-dasharray:none;stroke-opacity:1" />
    <g
       id="g1021"
       transform="matrix(0.01240429,0,0,0.01240463,12.964602,280.33119)"
       style="fill:#ededf0;fill-opacity:1;stroke:none;stroke-width:21.32969284;stroke-miterlimit:4;stroke-dasharray:none;stroke-opacity:1">
      <g
         id="g963"
         style="fill:#ededf0;fill-opacity:1;stroke:none;stroke-width:21.32969284;stroke-miterlimit:4;stroke-dasharray:none;stroke-opacity:1">
        <path
           id="path957"
           d="m 261.891,319.945 c -2.599,0 -5.101,-1.012 -6.97,-2.828 l -2.515,-2.444 -22.722,0.657 c -8.579,0.197 -15.594,-6.484 -15.832,-15.109 l -0.34,-12.18 -11.554,0.334 c -0.145,0.004 -0.295,0.006 -0.446,0.006 -8.395,0 -15.153,-6.641 -15.385,-15.119 l -0.337,-12.174 -11.555,0.334 c -0.154,0.004 -0.295,0.006 -0.437,0.006 -8.4,0 -15.162,-6.642 -15.395,-15.121 l -0.677,-24.32 c -2.093,-2.127 -5.762,-5.599 -9.706,-9.23 -3.898,2.241 -8.346,3.461 -12.896,3.461 -6.772,0 -13.196,-2.62 -18.086,-7.377 -0.2,-0.194 -0.392,-0.397 -0.575,-0.607 -0.483,-0.557 -1.007,-1.175 -1.538,-1.828 -3.937,0.455 -7.903,0.685 -11.859,0.685 -27.553,0 -53.453,-10.775 -72.931,-30.343 -40.182,-40.362 -40.182,-106.036 0,-146.399 19.48,-19.569 45.382,-30.345 72.936,-30.345 27.554,0 53.455,10.776 72.934,30.344 23.722,23.828 34.284,57.301 28.743,90.367 2.623,4.08 4.098,8.83 4.234,13.808 0.117,4.269 -0.747,8.412 -2.491,12.158 l 109.77,110.439 c 1.794,1.806 2.832,4.227 2.903,6.771 l 0.774,27.738 c 0.401,14.682 -10.999,26.963 -25.415,27.383 l -32.346,0.93 c -0.095,0.002 -0.191,0.003 -0.286,0.003 z m -5.547,-25.391 c 2.599,0 5.101,1.013 6.97,2.829 l 2.515,2.444 28.117,-0.809 c 3.407,-0.099 6.102,-3.167 6.001,-6.838 L 299.283,268.408 187.876,156.323 c -1.504,-1.514 -2.484,-3.469 -2.799,-5.579 l -0.383,-2.574 c -0.443,-2.987 0.485,-6.015 2.529,-8.238 1.189,-1.294 1.817,-3.021 1.767,-4.86 -0.049,-1.788 -0.752,-3.446 -1.978,-4.669 -2.407,-2.398 -3.431,-5.855 -2.719,-9.178 5.987,-27.927 -2.41,-56.624 -22.463,-76.768 -15.697,-15.769 -36.565,-24.453 -58.76,-24.453 -22.195,0 -43.061,8.684 -58.76,24.453 -32.437,32.582 -32.437,85.598 0,118.179 15.697,15.77 36.563,24.453 58.757,24.453 5.311,0 10.642,-0.513 15.848,-1.522 4.327,-0.844 8.692,1.251 10.749,5.148 0.576,1.092 0.369,4.093 5.202,4.926 1.617,0.279 3.435,-0.101 4.591,-1.331 l 1.295,-1.469 c 1.764,-2 4.251,-3.213 6.912,-3.369 2.676,-0.154 5.275,0.755 7.261,2.533 0.2,0.18 4.968,4.451 9.827,8.99 10.646,9.945 12.744,12.306 12.874,17.028 l 0.647,23.272 16.947,-0.49 c 2.676,-0.084 5.229,0.906 7.157,2.728 1.93,1.823 3.055,4.339 3.128,6.992 l 0.491,17.724 16.943,-0.49 c 2.677,-0.086 5.229,0.905 7.156,2.728 1.93,1.822 3.055,4.337 3.129,6.989 l 0.495,17.729 22.334,-0.646 c 0.098,-0.004 0.195,-0.005 0.291,-0.005 z"
           inkscape:connector-curvature="0"
           style="fill:#ededf0;fill-opacity:1;stroke:none;stroke-width:21.32969284;stroke-miterlimit:4;stroke-dasharray:none;stroke-opacity:1" />
        <path
           id="path959"
           d="m 84.895,120.428 c -9.363,0 -18.163,-3.659 -24.779,-10.305 -13.631,-13.695 -13.63,-35.974 0,-49.664 6.616,-6.646 15.418,-10.308 24.782,-10.308 9.364,0 18.166,3.661 24.782,10.309 13.629,13.69 13.627,35.968 -0.003,49.659 -6.615,6.647 -15.416,10.309 -24.782,10.309 z m 0.003,-50.276 c -4.005,0 -7.772,1.569 -10.608,4.418 -5.885,5.911 -5.885,15.53 10e-4,21.443 2.834,2.847 6.601,4.415 10.604,4.415 4.005,0 7.771,-1.569 10.607,-4.418 5.886,-5.913 5.887,-15.53 0.004,-21.44 -2.835,-2.849 -6.603,-4.418 -10.608,-4.418 z"
           inkscape:connector-curvature="0"
           style="fill:#ededf0;fill-opacity:1;stroke:none;stroke-width:21.32969284;stroke-miterlimit:4;stroke-dasharray:none;stroke-opacity:1" />
        <path
           id="path961"
           d="m 271.669,282.908 c -2.566,0 -5.133,-0.981 -7.087,-2.945 l -88.698,-89.1 c -3.896,-3.914 -3.882,-10.245 0.032,-14.142 3.912,-3.895 10.245,-3.884 14.142,0.032 l 88.698,89.1 c 3.896,3.914 3.882,10.245 -0.032,14.142 -1.951,1.942 -4.503,2.913 -7.055,2.913 z"
           inkscape:connector-curvature="0"
           style="fill:#ededf0;fill-opacity:1;stroke:none;stroke-width:21.32969284;stroke-miterlimit:4;stroke-dasharray:none;stroke-opacity:1" />
      </g>
      <g
         id="g965"
         style="fill:#ededf0;fill-opacity:1;stroke:none;stroke-width:21.32969284;stroke-miterlimit:4;stroke-dasharray:none;stroke-opacity:1" />
      <g
         id="g967"
         style="fill:#ededf0;fill-opacity:1;stroke:none;stroke-width:21.32969284;stroke-miterlimit:4;stroke-dasharray:none;stroke-opacity:1" />
      <g
         id="g969"
         style="fill:#ededf0;fill-opacity:1;stroke:none;stroke-width:21.32969284;stroke-miterlimit:4;stroke-dasharray:none;stroke-opacity:1" />
      <g
         id="g971"
         style="fill:#ededf0;fill-opacity:1;stroke:none;stroke-width:21.32969284;stroke-miterlimit:4;stroke-dasharray:none;stroke-opacity:1" />
      <g
         id="g973"
         style="fill:#ededf0;fill-opacity:1;stroke:none;stroke-width:21.32969284;stroke-miterlimit:4;stroke-dasharray:none;stroke-opacity:1" />
      <g
         id="g975"
         style="fill:#ededf0;fill-opacity:1;stroke:none;stroke-width:21.32969284;stroke-miterlimit:4;stroke-dasharray:none;stroke-opacity:1" />
      <g
         id="g977"
         style="fill:#ededf0;fill-opacity:1;stroke:none;stroke-width:21.32969284;stroke-miterlimit:4;stroke-dasharray:none;stroke-opacity:1" />
      <g
         id="g979"
         style="fill:#ededf0;fill-opacity:1;stroke:none;stroke-width:21.32969284;stroke-miterlimit:4;stroke-dasharray:none;stroke-opacity:1" />
      <g
         id="g981"
         style="fill:#ededf0;fill-opacity:1;stroke:none;stroke-width:21.32969284;stroke-miterlimit:4;stroke-dasharray:none;stroke-opacity:1" />
      <g
         id="g983"
         style="fill:#ededf0;fill-opacity:1;stroke:none;stroke-width:21.32969284;stroke-miterlimit:4;stroke-dasharray:none;stroke-opacity:1" />
      <g
         id="g985"
         style="fill:#ededf0;fill-opacity:1;stroke:none;stroke-width:21.32969284;stroke-miterlimit:4;stroke-dasharray:none;stroke-opacity:1" />
      <g
         id="g987"
         style="fill:#ededf0;fill-opacity:1;stroke:none;stroke-width:21.32969284;stroke-miterlimit:4;stroke-dasharray:none;stroke-opacity:1" />
      <g
         id="g989"
         style="fill:#ededf0;fill-opacity:1;stroke:none;stroke-width:21.32969284;stroke-miterlimit:4;stroke-dasharray:none;stroke-opacity:1" />
      <g
         id="g991"
         style="fill:#ededf0;fill-opacity:1;stroke:none;stroke-width:21.32969284;stroke-miterlimit:4;stroke-dasharray:none;stroke-opacity:1" />
      <g
         id="g993"
         style="fill:#ededf0;fill-opacity:1;stroke:none;stroke-width:21.32969284;stroke-miterlimit:4;stroke-dasharray:none;stroke-opacity:1" />
    </g>
    <circle
       id="circle1026"
       style="fill:#ededf0;fill-opacity:1;fill-rule:nonzero;stroke:#ededf0;stroke-width:0.30520779;stroke-miterlimit:4;stroke-dasharray:none;stroke-dashoffset:0;stroke-opacity:1"
       cx="6.3499999"
       cy="294.88333"
       r="1.6994795" />
    <path
       style="fill:none;fill-rule:evenodd;stroke:#ffffff;stroke-width:0.52916667;stroke-linecap:butt;stroke-linejoin:miter;stroke-opacity:1;stroke-miterlimit:4;stroke-dasharray:none;fill-opacity:1"
       d="m 5.2916666,294.86679 2.1166666,0.0331"
       id="path1028"
       inkscape:connector-curvature="0" />
    <path
       sodipodi:type="star"
       style="opacity:1;fill:#ededf0;fill-opacity:1;fill-rule:evenodd;stroke:#ededf0;stroke-width:0.52916664;stroke-linecap:round;stroke-linejoin:round;stroke-miterlimit:4;stroke-dasharray:none;stroke-dashoffset:0;stroke-opacity:1"
       id="path1030"
       sodipodi:sides="8"
       sodipodi:cx="20.664324"
       sodipodi:cy="293.84778"
       sodipodi:r1="1.8549659"
       sodipodi:r2="3.7099319"
       sodipodi:arg1="0.72966196"
       sodipodi:arg2="1.122361"
       inkscape:flatsided="true"
       inkscape:rounded="0"
       inkscape:randomized="0"
       d="m 22.047015,295.08433 -1.279356,0.61553 -1.339888,-0.46939 -0.615533,-1.27936 0.469395,-1.33988 1.279356,-0.61554 1.339888,0.4694 0.615532,1.27935 z"
       inkscape:transform-center-x="0.16376244"
       inkscape:transform-center-y="-0.21275851"
       transform="rotate(26.821916,13.128513,273.02661)" />
    <path
       sodipodi:nodetypes="cc"
       inkscape:connector-curvature="0"
       id="path1032"
       d="m 0.7182654,289.21652 2.843574,2.87866"
       style="fill:none;stroke:#ededf0;stroke-width:0.82020831;stroke-linecap:round;stroke-linejoin:miter;stroke-miterlimit:4;stroke-dasharray:none;stroke-opacity:1" />
    <path
       sodipodi:nodetypes="cc"
       inkscape:connector-curvature="0"
       id="path1034"
       d="m 9.6746332,294.21652 1.5528168,1.57545"
       style="fill:none;stroke:#ffffff;stroke-width:0.52916667;stroke-linecap:round;stroke-linejoin:miter;stroke-miterlimit:4;stroke-dasharray:none;stroke-opacity:1" />
    <path
       style="fill:none;stroke:#ffffff;stroke-width:0.52916667;stroke-linecap:round;stroke-linejoin:miter;stroke-miterlimit:4;stroke-dasharray:none;stroke-opacity:1"
       d="m 11.22745,294.21652 -1.5528168,1.57545"
       id="path1036"
       inkscape:connector-curvature="0"
       sodipodi:nodetypes="cc" />
    <path
       style="fill:none;stroke:#ffffff;stroke-width:0.26458333;stroke-linecap:round;stroke-linejoin:miter;stroke-miterlimit:4;stroke-dasharray:none;stroke-opacity:1"
       d="m 9.6746332,294.21652 1.5528168,1.57545"
       id="path1038"
       inkscape:connector-curvature="0"
       sodipodi:nodetypes="cc" />
  </g>
</svg>
