<?xml version="1.0" encoding="UTF-8" standalone="no"?>
<!-- Created with Inkscape (http://www.inkscape.org/) -->

<svg
   xmlns:dc="http://purl.org/dc/elements/1.1/"
   xmlns:cc="http://creativecommons.org/ns#"
   xmlns:rdf="http://www.w3.org/1999/02/22-rdf-syntax-ns#"
   xmlns:svg="http://www.w3.org/2000/svg"
   xmlns="http://www.w3.org/2000/svg"
   xmlns:sodipodi="http://sodipodi.sourceforge.net/DTD/sodipodi-0.dtd"
   xmlns:inkscape="http://www.inkscape.org/namespaces/inkscape"
   width="18"
   height="18"
   id="svg3763"
   version="1.1"
   inkscape:version="0.48.2 r9819"
   sodipodi:docname="smiley16.svg"
   inkscape:export-filename="/Users/aecreations/Documents/Graphics/Inkscape/Panic Button/Export/smiley16.png"
   inkscape:export-xdpi="80"
   inkscape:export-ydpi="80">
  <defs
     id="defs3765" />
  <sodipodi:namedview
     id="base"
     pagecolor="#ffffff"
     bordercolor="#666666"
     borderopacity="1.0"
     inkscape:pageopacity="0.0"
     inkscape:pageshadow="2"
     inkscape:zoom="22.395604"
     inkscape:cx="2.3137804"
     inkscape:cy="8.6048794"
     inkscape:current-layer="layer1"
     showgrid="true"
     inkscape:grid-bbox="true"
     inkscape:document-units="px"
     inkscape:snap-global="false"
     inkscape:window-width="1280"
     inkscape:window-height="671"
     inkscape:window-x="0"
     inkscape:window-y="0"
     inkscape:window-maximized="1">
    <inkscape:grid
       type="xygrid"
       id="grid3771"
       empspacing="1"
       visible="true"
       enabled="true"
       snapvisiblegridlinesonly="true" />
  </sodipodi:namedview>
  <metadata
     id="metadata3768">
    <rdf:RDF>
      <cc:Work
         rdf:about="">
        <dc:format>image/svg+xml</dc:format>
        <dc:type
           rdf:resource="http://purl.org/dc/dcmitype/StillImage" />
        <dc:title></dc:title>
      </cc:Work>
    </rdf:RDF>
  </metadata>
  <g
     id="layer1"
     inkscape:label="Layer 1"
     inkscape:groupmode="layer"
     transform="translate(0,-14)">
    <path
       sodipodi:type="arc"
       style="fill:#ffec00;fill-opacity:1;fill-rule:nonzero;stroke:#000000;stroke-width:2.45091891;stroke-miterlimit:4;stroke-opacity:1;stroke-dasharray:none;stroke-dashoffset:0"
       id="path3773"
       sodipodi:cx="17.190874"
       sodipodi:cy="16.773798"
       sodipodi:rx="14.511777"
       sodipodi:ry="14.511777"
       d="m 31.702651,16.773798 c 0,8.014633 -6.497144,14.511777 -14.511777,14.511777 -8.014633,0 -14.5117768,-6.497144 -14.5117768,-14.511777 0,-8.0146331 6.4971438,-14.5117769 14.5117768,-14.5117769 8.014633,0 14.511777,6.4971438 14.511777,14.5117769 z"
       transform="matrix(0.55864099,0,0,0.55864099,-0.57021059,13.636861)" />
    <path
       sodipodi:type="arc"
       style="fill:#000000;fill-opacity:1;fill-rule:nonzero;stroke:#000000;stroke-width:2;stroke-miterlimit:4;stroke-opacity:1;stroke-dasharray:none;stroke-dashoffset:0"
       id="path5429"
       sodipodi:cx="11.921983"
       sodipodi:cy="11.236997"
       sodipodi:rx="1.65211"
       sodipodi:ry="1.65211"
       d="m 13.574093,11.236997 c 0,0.912435 -0.739675,1.65211 -1.65211,1.65211 -0.912435,0 -1.65211,-0.739675 -1.65211,-1.65211 0,-0.912435 0.739675,-1.6521103 1.65211,-1.6521103 0.912435,0 1.65211,0.7396753 1.65211,1.6521103 z"
       transform="matrix(0.58063335,0,0,0.55360632,-0.88229159,14.300685)" />
    <path
       transform="matrix(0.55864099,0,0,0.55864099,5.3665152,14.253485)"
       d="m 13.574093,11.236997 c 0,0.912435 -0.739675,1.65211 -1.65211,1.65211 -0.912435,0 -1.65211,-0.739675 -1.65211,-1.65211 0,-0.912435 0.739675,-1.6521103 1.65211,-1.6521103 0.912435,0 1.65211,0.7396753 1.65211,1.6521103 z"
       sodipodi:ry="1.65211"
       sodipodi:rx="1.65211"
       sodipodi:cy="11.236997"
       sodipodi:cx="11.921983"
       id="path5431"
       style="fill:#000000;fill-opacity:1;fill-rule:nonzero;stroke:#000000;stroke-width:2.06035733;stroke-miterlimit:4;stroke-opacity:1;stroke-dasharray:none;stroke-dashoffset:0"
       sodipodi:type="arc" />
    <path
       style="fill:none;stroke:#000000;stroke-width:0.9634667;stroke-linecap:round;stroke-linejoin:miter;stroke-miterlimit:4;stroke-opacity:1;stroke-dasharray:none"
       d="m 4.5427169,24.007737 c 0.072208,0.849261 0.2472781,1.443124 0.6771495,2.118331 0.5724955,0.721818 0.6047094,0.620606 1.0360566,0.990163 0.9550185,0.663728 1.5897564,0.785461 2.996463,0.846093"
       id="path5433"
       inkscape:connector-curvature="0"
       sodipodi:nodetypes="cccc" />
    <path
       sodipodi:nodetypes="cccc"
       inkscape:connector-curvature="0"
       id="path6091"
       d="m 13.512366,24.003941 c -0.07072,0.85089 -0.242168,1.445895 -0.663159,2.122397 -0.560666,0.723205 -0.516455,0.6218 -0.938891,0.992067 -0.935286,0.665003 -1.785121,0.817955 -2.9345513,0.847716"
       style="fill:none;stroke:#000000;stroke-width:0.96373731;stroke-linecap:round;stroke-linejoin:miter;stroke-miterlimit:4;stroke-opacity:1;stroke-dasharray:none;marker-start:none;marker-mid:none;marker-end:none" />
  </g>
</svg>
