<?xml version="1.0" encoding="UTF-8" standalone="no"?>
<svg
   xmlns:dc="http://purl.org/dc/elements/1.1/"
   xmlns:cc="http://creativecommons.org/ns#"
   xmlns:rdf="http://www.w3.org/1999/02/22-rdf-syntax-ns#"
   xmlns:svg="http://www.w3.org/2000/svg"
   xmlns="http://www.w3.org/2000/svg"
   xmlns:sodipodi="http://sodipodi.sourceforge.net/DTD/sodipodi-0.dtd"
   xmlns:inkscape="http://www.inkscape.org/namespaces/inkscape"
   width="16"
   height="16"
   id="svg4372"
   version="1.1"
   inkscape:version="1.0.1 (c497b03c, 2020-09-10)"
   sodipodi:docname="web-document16_reverse.svg">
  <defs
     id="defs4374" />
  <sodipodi:namedview
     id="base"
     pagecolor="#808080"
     bordercolor="#666666"
     borderopacity="1.0"
     inkscape:pageopacity="0"
     inkscape:pageshadow="2"
     inkscape:zoom="31.392433"
     inkscape:cx="8.2220897"
     inkscape:cy="6.1980198"
     inkscape:current-layer="layer1"
     showgrid="true"
     inkscape:grid-bbox="true"
     inkscape:document-units="px"
     inkscape:snap-global="false"
     inkscape:window-width="2048"
     inkscape:window-height="1026"
     inkscape:window-x="0"
     inkscape:window-y="23"
     inkscape:window-maximized="1"
     inkscape:document-rotation="0">
    <inkscape:grid
       type="xygrid"
       id="grid4397"
       empspacing="1"
       visible="true"
       enabled="true"
       snapvisiblegridlinesonly="true" />
  </sodipodi:namedview>
  <metadata
     id="metadata4377">
    <rdf:RDF>
      <cc:Work
         rdf:about="">
        <dc:format>image/svg+xml</dc:format>
        <dc:type
           rdf:resource="http://purl.org/dc/dcmitype/StillImage" />
        <dc:title></dc:title>
      </cc:Work>
    </rdf:RDF>
  </metadata>
  <g
     id="layer1"
     inkscape:label="Layer 1"
     inkscape:groupmode="layer">
    <path
       id="path3002"
       style="fill:#f9f9fa;fill-opacity:0.00313727;stroke:#ffffff;stroke-width:1.20244145;stroke-linecap:butt;stroke-linejoin:miter;stroke-miterlimit:4;stroke-dasharray:none;stroke-opacity:1"
       d="m 10.397197,0.61047722 0.03816,4.33742498 h 4.211028 M 3.5715732,6.5513782 V 0.63281383 l 7.0605938,0.0408649 c 1.830559,1.88041847 2.274821,2.28584617 3.953789,4.02910667 v 9.7391096 l -6.5995313,-0.04505"
       inkscape:connector-curvature="0"
       sodipodi:nodetypes="ccccccccc" />
    <path
       sodipodi:type="arc"
       style="fill:#f9f9fa;fill-opacity:0.00313725;fill-rule:nonzero;stroke:#ffffff;stroke-width:3.45018767;stroke-linecap:square;stroke-linejoin:bevel;stroke-miterlimit:4;stroke-opacity:1;stroke-dasharray:none;stroke-dashoffset:0"
       id="path4417-1"
       sodipodi:cx="16.5"
       sodipodi:cy="16.5"
       sodipodi:rx="9.5"
       sodipodi:ry="9.5"
       d="m 26,16.5 a 9.5,9.5 0 1 1 -19,0 9.5,9.5 0 1 1 19,0 z"
       transform="matrix(0.46374289,0,0,0.46374289,-2.3054752,3.1187857)" />
    <path
       style="fill:none;stroke:#ffffff;stroke-width:0.69107789;stroke-linecap:butt;stroke-linejoin:miter;stroke-miterlimit:4;stroke-opacity:1;stroke-dasharray:none"
       d="m 1.351634,9.0503882 0.7129353,0.3662801 c 0.7940593,0.2004134 0.953277,0.1134015 1.4098436,0.2084343 0.4825631,0.1004442 1.0911378,0.1087949 1.7585184,0.10725 0,0 0.7264995,0.012081 1.6184802,-0.1708362 C 7.7636989,9.3744469 7.8840851,9.360076 7.8840851,9.360076 L 8.9477008,9.0253669"
       id="path4946-6-7"
       inkscape:connector-curvature="0"
       sodipodi:nodetypes="ccscscc" />
    <path
       style="fill:none;stroke:#ffffff;stroke-width:0.82316995;stroke-linecap:butt;stroke-linejoin:miter;stroke-miterlimit:4;stroke-opacity:1;stroke-dasharray:none"
       d="m 0.96603428,11.580872 1.59401312,0.326307 c 1.1583546,0.234898 1.4782164,0.03227 2.6482709,0.08732 1.258671,0.0091 1.7378284,-0.03911 2.6488664,-0.186572 l 1.5564076,-0.445696"
       id="path4946-6-0-0"
       inkscape:connector-curvature="0"
       sodipodi:nodetypes="ccccc" />
    <path
       style="fill:none;stroke:#ffffff;stroke-width:0.58085531;stroke-linecap:butt;stroke-linejoin:miter;stroke-miterlimit:4;stroke-opacity:1;stroke-dasharray:none"
       d="M 4.4322624,6.5547793 C 4.3183706,7.3879279 4.1560012,7.9071828 4.0871259,9.1547498 3.9432138,9.9641953 3.987883,10.146815 3.9849935,11.245773 c 0.042095,0.999591 0.075082,1.522148 0.2032448,2.122915 0.094008,0.608271 0.1531774,0.883388 0.2211954,1.712494"
       id="path4984-6"
       inkscape:connector-curvature="0"
       sodipodi:nodetypes="ccccc" />
    <path
       style="fill:#f9f9fa;stroke:#ffffff;stroke-width:0.606224;stroke-linecap:butt;stroke-linejoin:miter;stroke-miterlimit:4;stroke-opacity:1;stroke-dasharray:none;fill-opacity:0.00313725"
       d="m 6.1981152,6.6555235 c 0.2850643,1.051866 0.3460955,1.6304145 0.5812321,2.830019 0.1596188,0.8070315 0.1497566,0.9725025 0.1529632,1.8469825 -0.007,0.73116 -0.043583,1.207922 -0.2254272,2.160817 -0.1042723,0.606457 -0.2492664,0.969233 -0.4834513,1.663143"
       id="path4984-8-1"
       inkscape:connector-curvature="0"
       sodipodi:nodetypes="ccccc" />
  </g>
</svg>
