<?xml version="1.0" encoding="UTF-8" standalone="no"?>
<!-- Created with Inkscape (http://www.inkscape.org/) -->

<svg
   xmlns:dc="http://purl.org/dc/elements/1.1/"
   xmlns:cc="http://creativecommons.org/ns#"
   xmlns:rdf="http://www.w3.org/1999/02/22-rdf-syntax-ns#"
   xmlns:svg="http://www.w3.org/2000/svg"
   xmlns="http://www.w3.org/2000/svg"
   xmlns:sodipodi="http://sodipodi.sourceforge.net/DTD/sodipodi-0.dtd"
   xmlns:inkscape="http://www.inkscape.org/namespaces/inkscape"
   width="32px"
   height="32px"
   id="svg5814"
   version="1.1"
   inkscape:version="0.48.5 r10040"
   sodipodi:docname="web-page-with-globe32_mac.svg">
  <defs
     id="defs5816" />
  <sodipodi:namedview
     id="base"
     pagecolor="#ffffff"
     bordercolor="#666666"
     borderopacity="1.0"
     inkscape:pageopacity="0.0"
     inkscape:pageshadow="2"
     inkscape:zoom="11.197802"
     inkscape:cx="-1.5129375"
     inkscape:cy="12.02431"
     inkscape:current-layer="layer1"
     showgrid="true"
     inkscape:grid-bbox="true"
     inkscape:document-units="px"
     inkscape:snap-global="false"
     inkscape:window-width="1280"
     inkscape:window-height="667"
     inkscape:window-x="0"
     inkscape:window-y="0"
     inkscape:window-maximized="1">
    <inkscape:grid
       type="xygrid"
       id="grid5838"
       empspacing="1"
       visible="true"
       enabled="true"
       snapvisiblegridlinesonly="true" />
  </sodipodi:namedview>
  <metadata
     id="metadata5819">
    <rdf:RDF>
      <cc:Work
         rdf:about="">
        <dc:format>image/svg+xml</dc:format>
        <dc:type
           rdf:resource="http://purl.org/dc/dcmitype/StillImage" />
        <dc:title />
      </cc:Work>
    </rdf:RDF>
  </metadata>
  <g
     id="layer1"
     inkscape:label="Layer 1"
     inkscape:groupmode="layer">
    <path
       sodipodi:type="arc"
       style="fill:#ffffff;fill-opacity:0.94117647000000004;fill-rule:nonzero;stroke:#404040;stroke-width:1.79999994999999990;stroke-linecap:square;stroke-linejoin:bevel;stroke-miterlimit:4;stroke-opacity:1;stroke-dasharray:none;stroke-dashoffset:0"
       id="path4417"
       sodipodi:cx="16.5"
       sodipodi:cy="16.5"
       sodipodi:rx="9.5"
       sodipodi:ry="9.5"
       d="m 26,16.5 a 9.5,9.5 0 1 1 -19,0 9.5,9.5 0 1 1 19,0 z"
       transform="matrix(1.4379293,0,0,1.4379293,-8.6771459,-8.6515298)" />
    <path
       style="fill:none;stroke:#404040;stroke-width:1.72551537000000010;stroke-linecap:butt;stroke-linejoin:miter;stroke-miterlimit:4;stroke-opacity:1;stroke-dasharray:none"
       d="m 1.7912907,13.036526 2.1712008,1.876764 c 1.7244836,0.892651 4.3679124,1.169987 5.7759604,1.514892 1.4882161,0.364543 3.1834541,0.394855 5.2416361,0.389254 0,0 3.291426,-0.14435 6.080984,-0.620025 3.449089,-0.588139 5.831717,-1.882113 5.831717,-1.882113 l 1.282554,-1.278772"
       id="path4946"
       inkscape:connector-curvature="0"
       sodipodi:nodetypes="ccscscc" />
    <path
       style="fill:none;stroke:#404040;stroke-width:1.72551537000000010;stroke-linecap:butt;stroke-linejoin:miter;stroke-miterlimit:4;stroke-opacity:1;stroke-dasharray:none"
       d="M 2.9782882,6.9698141 5.6942939,8.7557799 C 7.496503,9.6353554 8.24619,9.4717627 9.6542375,9.8166664 c 1.4882175,0.3645426 3.3650565,0.3948546 5.4232395,0.3892526 0,0 2.240512,0.0438 4.991374,-0.6200236 2.813483,-0.6789403 2.926091,-0.8833032 2.926091,-0.8833032 l 3.28017,-1.823579"
       id="path4946-6"
       inkscape:connector-curvature="0"
       sodipodi:nodetypes="ccscscc" />
    <path
       style="fill:none;stroke:#404040;stroke-width:1.74070751999999995;stroke-linecap:butt;stroke-linejoin:miter;stroke-miterlimit:4;stroke-opacity:1;stroke-dasharray:none"
       d="M 2.5772812,19.646899 6.5564691,21.6981 c 1.8404931,0.876513 2.6061058,0.803975 4.0440639,1.147677 1.519832,0.363273 2.787432,0.39348 4.889338,0.387898 0,0 1.54627,0.224616 4.355569,-0.436898 2.873248,-0.676574 3.544626,-1.15168 3.544626,-1.15168 l 4.648066,-2.722074"
       id="path4946-6-0"
       inkscape:connector-curvature="0"
       sodipodi:nodetypes="ccscscc" />
    <path
       style="fill:none;stroke:#404040;stroke-width:1.72551537000000010;stroke-linecap:butt;stroke-linejoin:miter;stroke-miterlimit:4;stroke-opacity:1;stroke-dasharray:none"
       d="m 12.311279,2.2374127 c -1.022394,3.246982 -1.241284,4.2988154 -2.084614,8.0018473 -0.5724772,2.491205 -0.5371095,3.736071 -0.5486091,6.435482 0.025082,2.257009 0.1563286,3.728708 0.8085051,6.670187 0.373963,1.872053 0.894004,2.991898 1.733918,5.13392"
       id="path4984"
       inkscape:connector-curvature="0"
       sodipodi:nodetypes="ccccc" />
    <path
       style="fill:none;stroke:#404040;stroke-width:1.72551537000000010;stroke-linecap:butt;stroke-linejoin:miter;stroke-miterlimit:4;stroke-opacity:1;stroke-dasharray:none"
       d="m 18.440336,2.3736139 c 1.022393,3.2469815 1.241283,4.2988148 2.084613,8.0018481 0.572478,2.491203 0.537109,3.73607 0.54861,6.435483 -0.02507,2.257008 -0.15633,3.728707 -0.808504,6.670185 -0.373965,1.872053 -0.894006,2.991898 -1.733919,5.133919"
       id="path4984-8"
       inkscape:connector-curvature="0"
       sodipodi:nodetypes="ccccc" />
    <path
       style="fill:#a8a8a8;fill-opacity:1;fill-rule:nonzero;stroke:#323232;stroke-width:1.27361882000000004;stroke-linecap:square;stroke-linejoin:miter;stroke-miterlimit:4;stroke-opacity:1;stroke-dasharray:none;stroke-dashoffset:0"
       d="m 12.538744,9.2683528 14.495328,0 2.436849,2.0578432 1.833839,1.654006 0,18.353998 -18.766016,0 z"
       id="rect6430"
       inkscape:connector-curvature="0"
       sodipodi:nodetypes="ccccccc" />
    <g
       transform="matrix(0.84494574,0,0,0.82021238,-33.171626,-0.85423282)"
       id="g3772" />
    <path
       sodipodi:type="arc"
       style="fill:#ffffff;fill-opacity:0.94117647000000004;fill-rule:nonzero;stroke:#404040;stroke-width:2;stroke-linecap:square;stroke-linejoin:bevel;stroke-miterlimit:4;stroke-opacity:1;stroke-dasharray:none;stroke-dashoffset:0"
       id="path4417-9"
       sodipodi:cx="16.5"
       sodipodi:cy="16.5"
       sodipodi:rx="9.5"
       sodipodi:ry="9.5"
       d="m 26,16.5 a 9.5,9.5 0 1 1 -19,0 9.5,9.5 0 1 1 19,0 z"
       transform="matrix(0.66637291,0,0,0.64686675,11.201694,9.8541191)" />
    <path
       style="fill:none;stroke:#404040;stroke-width:0.78785682000000001;stroke-linecap:butt;stroke-linejoin:miter;stroke-miterlimit:4;stroke-opacity:1;stroke-dasharray:none"
       d="m 16.053035,19.610705 1.006187,0.84428 c 0.799171,0.401569 2.024204,0.526335 2.67673,0.681491 0.689677,0.16399 1.475292,0.177631 2.429106,0.175109 0,0 1.525331,-0.06495 2.818082,-0.278925 1.598394,-0.264579 2.702565,-0.846686 2.702565,-0.846686 l 0.594369,-0.57527"
       id="path4946-4"
       inkscape:connector-curvature="0"
       sodipodi:nodetypes="ccscscc" />
    <path
       style="fill:none;stroke:#404040;stroke-width:0.78785682000000001;stroke-linecap:butt;stroke-linejoin:miter;stroke-miterlimit:4;stroke-opacity:1;stroke-dasharray:none"
       d="m 16.60312,16.881536 1.258666,0.803432 c 0.835189,0.395686 1.182613,0.322093 1.835138,0.477252 0.689679,0.163995 1.559451,0.17763 2.513268,0.175109 0,0 1.038308,0.01971 2.313128,-0.278926 1.303838,-0.305426 1.356024,-0.397359 1.356024,-0.397359 l 1.520114,-0.820358"
       id="path4946-6-2"
       inkscape:connector-curvature="0"
       sodipodi:nodetypes="ccscscc" />
    <path
       style="fill:none;stroke:#404040;stroke-width:0.79479348999999999;stroke-linecap:butt;stroke-linejoin:miter;stroke-miterlimit:4;stroke-opacity:1;stroke-dasharray:none"
       d="m 16.417282,22.584448 1.844059,0.922754 c 0.852929,0.394307 1.207733,0.361675 1.874119,0.516293 0.704331,0.163422 1.291768,0.177011 2.265846,0.174501 0,0 0.71658,0.101018 2.018478,-0.196543 1.331539,-0.304365 1.642671,-0.518099 1.642671,-0.518099 l 2.154031,-1.224549"
       id="path4946-6-0-3"
       inkscape:connector-curvature="0"
       sodipodi:nodetypes="ccscscc" />
    <path
       style="fill:none;stroke:#404040;stroke-width:0.77269982999999998;stroke-linecap:butt;stroke-linejoin:miter;stroke-miterlimit:4;stroke-opacity:1;stroke-dasharray:none"
       d="m 20.619119,14.683637 c -0.201702,1.154971 -0.489256,1.874799 -0.611236,3.604265 -0.254869,1.122109 -0.175756,1.37527 -0.180875,2.89873 0.07456,1.385698 0.132957,2.110106 0.359946,2.942929 0.16649,0.843227 0.271279,1.224613 0.391738,2.373979"
       id="path4984-85"
       inkscape:connector-curvature="0"
       sodipodi:nodetypes="ccccc" />
    <path
       style="fill:none;stroke:#404040;stroke-width:0.80277407000000001;stroke-linecap:butt;stroke-linejoin:miter;stroke-miterlimit:4;stroke-opacity:1;stroke-dasharray:none"
       d="m 23.776195,14.821237 c 0.492528,1.458869 0.597975,1.931455 1.004242,3.595229 0.275787,1.1193 0.258748,1.678618 0.264287,2.891461 -0.01214,1.014074 -0.0753,1.675307 -0.389487,2.996915 -0.180155,0.841112 -0.43068,1.344259 -0.8353,2.306669"
       id="path4984-8-2"
       inkscape:connector-curvature="0"
       sodipodi:nodetypes="ccccc" />
    <path
       style="fill:none;stroke:#323232;stroke-width:1.20000005000000010;stroke-linecap:butt;stroke-linejoin:miter;stroke-miterlimit:4;stroke-opacity:1;stroke-dasharray:none"
       d="m 26.811288,9.1867786 0,4.2939904 4.167697,0"
       id="path6433"
       inkscape:connector-curvature="0" />
  </g>
</svg>
