<?xml version="1.0" encoding="UTF-8"?>
<svg width="16" height="16" version="1.1" xmlns="http://www.w3.org/2000/svg">
 <g stroke="#fff">
  <path d="m10.397 0.61048 0.03816 4.3374h4.211m-11.075 1.6969v-6.012l7.0606 0.040865c1.8306 1.8804 2.2748 2.2858 3.9538 4.0291v9.7391h-6.5897" fill="#f9f9fa" fill-opacity=".0039216" stroke-width="1.202"/>
  <circle cx="5.1001" cy="10.85" r="4.4751" fill="#f9f9fa" fill-opacity=".0039216" stroke-linecap="square" stroke-linejoin="bevel" stroke-width="1.25"/>
  <g fill="none" stroke-width=".5">
   <path d="m0.92254 9.1507s0.59095 0.18252 0.89197 0.25221c0.55967 0.12957 1.1251 0.24136 1.6958 0.3076 0.54456 0.06321 1.0942 0.08594 1.6424 0.08497 0.46882-8.32e-4 0.93815-0.02788 1.4043-0.07765 0.43248-0.04617 0.87295-0.1123 1.2887-0.20462 0.3267-0.07255 0.96055-0.29205 0.96055-0.29205"/>
   <path d="m0.62674 11.641s1.2768 0.38008 1.9308 0.49924c0.7845 0.14294 1.581 0.25617 2.3784 0.25649 0.89397 3.61e-4 1.7955-0.08505 2.6667-0.28539 0.77889-0.17911 1.6768-0.50067 1.6768-0.50067"/>
   <path d="m4.1716 6.5678c-0.11569 0.84629-0.40047 1.8771-0.47043 2.641-0.098243 0.6784-0.12478 1.607-0.10374 2.124 0.018789 0.63184 0.10024 1.5462 0.23042 2.1564 0.095492 0.61787 0.15559 0.94526 0.32056 1.5238"/>
   <path d="m5.9653 6.6701c0.28956 0.85274 0.57171 1.8669 0.73422 2.8267 0.090023 0.5317 0.12772 1.0574 0.13141 1.6125 0.00385 0.58042-0.056556 1.5673-0.20501 2.4346-0.12376 0.72303-0.27717 1.0564-0.46711 1.6414"/>
  </g>
 </g>
</svg>
