<?xml version="1.0" encoding="UTF-8" standalone="no"?>
<svg
   xmlns:dc="http://purl.org/dc/elements/1.1/"
   xmlns:cc="http://creativecommons.org/ns#"
   xmlns:rdf="http://www.w3.org/1999/02/22-rdf-syntax-ns#"
   xmlns:svg="http://www.w3.org/2000/svg"
   xmlns="http://www.w3.org/2000/svg"
   xmlns:sodipodi="http://sodipodi.sourceforge.net/DTD/sodipodi-0.dtd"
   xmlns:inkscape="http://www.inkscape.org/namespaces/inkscape"
   width="16"
   height="16"
   id="svg5178"
   version="1.1"
   inkscape:version="1.0.1 (c497b03c, 2020-09-10)"
   sodipodi:docname="web-page-with-globe16_reverse.svg">
  <defs
     id="defs5180" />
  <sodipodi:namedview
     id="base"
     pagecolor="#808080"
     bordercolor="#666666"
     borderopacity="1.0"
     inkscape:pageopacity="0"
     inkscape:pageshadow="2"
     inkscape:zoom="31.392433"
     inkscape:cx="8.6166637"
     inkscape:cy="7.9586815"
     inkscape:current-layer="layer1"
     showgrid="true"
     inkscape:grid-bbox="true"
     inkscape:document-units="px"
     inkscape:snap-global="false"
     inkscape:window-width="2048"
     inkscape:window-height="1026"
     inkscape:window-x="0"
     inkscape:window-y="23"
     inkscape:window-maximized="1"
     inkscape:document-rotation="0">
    <inkscape:grid
       type="xygrid"
       id="grid5186"
       empspacing="1"
       visible="true"
       enabled="true"
       snapvisiblegridlinesonly="true" />
  </sodipodi:namedview>
  <metadata
     id="metadata5183">
    <rdf:RDF>
      <cc:Work
         rdf:about="">
        <dc:format>image/svg+xml</dc:format>
        <dc:type
           rdf:resource="http://purl.org/dc/dcmitype/StillImage" />
        <dc:title></dc:title>
      </cc:Work>
    </rdf:RDF>
  </metadata>
  <g
     id="layer1"
     inkscape:label="Layer 1"
     inkscape:groupmode="layer">
    <path
       transform="matrix(0.76194412,0,0,0.76194412,-4.6079782,-4.5522968)"
       style="fill:#f9f9fa;fill-opacity:0.00313727;fill-rule:nonzero;stroke:#ffffff;stroke-width:1.79999995;stroke-linecap:square;stroke-linejoin:bevel;stroke-miterlimit:4;stroke-dasharray:none;stroke-dashoffset:0;stroke-opacity:1"
       d="M 12.977888,25.325689 C 9.4749601,23.926512 7,20.502285 7,16.5 7,11.253295 11.253295,7 16.5,7 c 3.699315,0 6.904768,2.1144411 8.473753,5.20068 0.08222,0.161733 0.15995,0.326136 0.233019,0.493042 0.06048,0.138158 0.117774,0.278032 0.17178,0.419528"
       id="path4417"
       inkscape:connector-curvature="0"
       sodipodi:nodetypes="cssssc" />
    <path
       style="fill:none;stroke:#ffffff;stroke-width:0.81524771;stroke-linecap:butt;stroke-linejoin:miter;stroke-miterlimit:4;stroke-dasharray:none;stroke-opacity:1"
       d="m 0.93913962,6.9399831 1.15049748,0.994479 c 0.913786,0.4730065 2.314512,0.6199642 3.0606222,0.8027256"
       id="path4946"
       inkscape:connector-curvature="0"
       sodipodi:nodetypes="ccc" />
    <path
       style="fill:none;stroke:#ffffff;stroke-width:0.81524771;stroke-linecap:butt;stroke-linejoin:miter;stroke-miterlimit:4;stroke-dasharray:none;stroke-opacity:1"
       d="M 1.5681177,3.7252947 3.0073014,4.6716596 C 3.9622741,5.1377375 4.3595251,5.0510514 5.1056353,5.2338129"
       id="path4946-6"
       inkscape:connector-curvature="0"
       sodipodi:nodetypes="ccc" />
    <path
       style="fill:none;stroke:#ffffff;stroke-width:0.82318199;stroke-linecap:butt;stroke-linejoin:miter;stroke-miterlimit:4;stroke-dasharray:none;stroke-opacity:1"
       d="m 1.3556282,10.442753 2.108531,1.086911 c 0.9752588,0.464455 1.3809492,0.426019 2.1429084,0.608143"
       id="path4946-6-0"
       inkscape:connector-curvature="0"
       sodipodi:nodetypes="ccc" />
    <path
       style="fill:none;stroke:#ffffff;stroke-width:0.91433299;stroke-linecap:butt;stroke-linejoin:miter;stroke-miterlimit:4;stroke-dasharray:none;stroke-opacity:1"
       d="M 6.5135747,1.2176431 C 5.9718188,2.9381857 5.855831,3.4955418 5.4089591,5.4577411 5.1056086,6.7778047 5.1243502,7.4374465 5.1182562,8.8678376 c 0.013288,1.1959664 0.082837,1.9758044 0.4284182,3.5344634"
       id="path4984"
       inkscape:connector-curvature="0"
       sodipodi:nodetypes="cccc" />
    <path
       style="fill:none;stroke:#ffffff;stroke-width:0.81524771;stroke-linecap:butt;stroke-linejoin:miter;stroke-miterlimit:4;stroke-dasharray:none;stroke-opacity:1"
       d="M 9.7612984,1.2898147 C 10.303055,3.0103571 10.291623,3.0580362 10.738496,5.0202358"
       id="path4984-8"
       inkscape:connector-curvature="0"
       sodipodi:nodetypes="cc" />
    <path
       style="fill:#f9f9fa;fill-opacity:0.00313725;fill-rule:nonzero;stroke:#ffffff;stroke-width:1.06418049;stroke-linecap:square;stroke-linejoin:miter;stroke-miterlimit:4;stroke-opacity:1;stroke-dashoffset:0"
       d="m 5.7579582,4.7748636 7.8822878,0 0.912924,0.7721095 0.791973,0.8555961 0.0396,8.9830648 -9.6267838,0 z"
       id="rect5221"
       inkscape:connector-curvature="0"
       sodipodi:nodetypes="ccccccc" />
    <path
       sodipodi:type="arc"
       style="fill:#f9f9ff;fill-opacity:0.00313725;fill-rule:nonzero;stroke:#ffffff;stroke-width:2.86095572;stroke-linecap:square;stroke-linejoin:bevel;stroke-miterlimit:4;stroke-opacity:1;stroke-dasharray:none;stroke-dashoffset:0"
       id="path4417-1"
       sodipodi:cx="16.5"
       sodipodi:cy="16.5"
       sodipodi:rx="9.5"
       sodipodi:ry="9.5"
       d="m 26,16.5 a 9.5,9.5 0 1 1 -19,0 9.5,9.5 0 1 1 19,0 z"
       transform="matrix(0.31059889,0,0,0.31059889,5.4662927,5.3482365)" />
    <path
       style="fill:none;stroke:#ffffff;stroke-width:0.3727186;stroke-linecap:butt;stroke-linejoin:miter;stroke-miterlimit:4;stroke-opacity:1;stroke-dasharray:none"
       d="m 7.9540388,9.1706826 0.586669,0.3857757 c 0.3892851,0.1899918 0.5512211,0.1546549 0.8553649,0.2291563 0.3214613,0.078743 0.7268663,0.08529 1.1714443,0.084079 0,0 0.48396,0.00947 1.078157,-0.1339278 0.607725,-0.1466541 0.632048,-0.1907961 0.632048,-0.1907961 l 0.708532,-0.3939024"
       id="path4946-6-7"
       inkscape:connector-curvature="0"
       sodipodi:nodetypes="ccscscc" />
    <path
       style="fill:none;stroke:#ffffff;stroke-width:0.44698134;stroke-linecap:butt;stroke-linejoin:miter;stroke-miterlimit:4;stroke-opacity:1;stroke-dasharray:none"
       d="m 7.7199673,10.894201 0.7289219,0.381169 c 0.7740822,0.167048 1.3521524,0.112417 2.1340538,0.15157 0.84112,0.0064 1.385519,-0.05764 1.966305,-0.281799 l 0.815888,-0.406425"
       id="path4946-6-0-0"
       inkscape:connector-curvature="0"
       sodipodi:nodetypes="ccccc" />
    <path
       style="fill:none;stroke:#ffffff;stroke-width:0.36554822;stroke-linecap:butt;stroke-linejoin:miter;stroke-miterlimit:4;stroke-opacity:1;stroke-dasharray:none"
       d="M 9.8557901,7.6671738 C 9.7617755,8.2217425 9.627744,8.5673749 9.5708894,9.3977933 9.4520939,9.9365846 9.4889669,10.058142 9.4865817,10.789643 c 0.034748,0.665357 0.061979,1.013188 0.167773,1.413076 0.077601,0.404884 0.1264439,0.588009 0.1825909,1.139888"
       id="path4984-6"
       inkscape:connector-curvature="0"
       sodipodi:nodetypes="ccccc" />
    <path
       style="fill:none;stroke:#ffffff;stroke-width:0.37977573;stroke-linecap:butt;stroke-linejoin:miter;stroke-miterlimit:4;stroke-opacity:1;stroke-dasharray:none"
       d="m 11.177925,7.7332434 c 0.229569,0.7004888 0.278719,0.927406 0.468081,1.7262808 0.128546,0.5374414 0.120603,0.8060038 0.123186,1.3883628 -0.0056,0.486915 -0.0351,0.804414 -0.181543,1.438993 -0.08397,0.403869 -0.200741,0.645459 -0.389336,1.107568"
       id="path4984-8-1"
       inkscape:connector-curvature="0"
       sodipodi:nodetypes="ccccc" />
  </g>
</svg>
