<?xml version="1.0" encoding="UTF-8"?>
<svg width="16" height="16" version="1.1" xmlns="http://www.w3.org/2000/svg">
 <g transform="translate(0,-16)" stroke="#fff">
  <g>
   <path d="m3.5 22.244v-5.7443h12v11l-6.2952 0.02397" fill="#f9f9fa" fill-opacity=".0039216"/>
   <rect x="4.2255" y="16.225" width="10.549" height="1.549" fill="#fff" stroke-width=".45099"/>
   <path transform="matrix(.47106 0 0 .47106 -2.404 18.944)" d="m26 16.5a9.5 9.5 0 0 1-9.5 9.5 9.5 9.5 0 0 1-9.5-9.5 9.5 9.5 0 0 1 9.5-9.5 9.5 9.5 0 0 1 9.5 9.5z" fill="#f9f9fa" fill-opacity=".0039216" stroke-linecap="square" stroke-linejoin="bevel" stroke-width="2.8295"/>
  </g>
  <g fill="none">
   <path d="m1.3108 24.969 0.72418 0.37206c0.80659 0.20357 0.96832 0.11519 1.4321 0.21172 0.49018 0.10203 1.1084 0.11051 1.7863 0.10894 0 0 0.73796 0.01228 1.644-0.17353 0.92668-0.19002 1.049-0.20462 1.049-0.20462l1.0804-0.33999" stroke-width=".61312"/>
   <path d="m0.91915 27.54 1.6192 0.33146c1.1766 0.2386 1.5015 0.03278 2.6901 0.0887 1.2785 0.0092 1.7652-0.03973 2.6907-0.18952l1.581-0.45273" stroke-width=".7473"/>
   <path d="m4.4401 22.434c-0.11569 0.84629-0.28062 1.3737-0.35058 2.641-0.14618 0.82222-0.10081 1.0077-0.10374 2.124 0.042759 1.0154 0.076266 1.5462 0.20645 2.1564 0.095492 0.61787 0.15559 0.89732 0.22469 1.7395" stroke-width=".67888"/>
   <path d="m6.2338 22.537c0.28956 1.0685 0.35156 1.6561 0.5904 2.8747 0.16214 0.81976 0.15212 0.98784 0.15538 1.8761-0.00711 0.7427-0.04427 1.227-0.22898 2.1949-0.10592 0.61602-0.2532 0.98452-0.49108 1.6894" stroke-width=".70465"/>
  </g>
 </g>
</svg>
