<?xml version="1.0" encoding="UTF-8" standalone="no"?>
<!-- Created with Inkscape (http://www.inkscape.org/) -->

<svg
   xmlns:dc="http://purl.org/dc/elements/1.1/"
   xmlns:cc="http://creativecommons.org/ns#"
   xmlns:rdf="http://www.w3.org/1999/02/22-rdf-syntax-ns#"
   xmlns:svg="http://www.w3.org/2000/svg"
   xmlns="http://www.w3.org/2000/svg"
   xmlns:sodipodi="http://sodipodi.sourceforge.net/DTD/sodipodi-0.dtd"
   xmlns:inkscape="http://www.inkscape.org/namespaces/inkscape"
   width="32px"
   height="32px"
   id="svg2987"
   version="1.1"
   inkscape:version="0.92.2 5c3e80d, 2017-08-06"
   sodipodi:docname="window-with-globe32_reverse.svg"
   inkscape:export-filename="/Users/aecreations/Documents/Graphics/Inkscape/Panic Button/Export/window32.png"
   inkscape:export-xdpi="90"
   inkscape:export-ydpi="90">
  <defs
     id="defs2989" />
  <sodipodi:namedview
     id="base"
     pagecolor="#ffffff"
     bordercolor="#666666"
     borderopacity="1.0"
     inkscape:pageopacity="0.0"
     inkscape:pageshadow="2"
     inkscape:zoom="15.836083"
     inkscape:cx="13.410337"
     inkscape:cy="12.300939"
     inkscape:current-layer="layer1"
     showgrid="true"
     inkscape:grid-bbox="true"
     inkscape:document-units="px"
     objecttolerance="20"
     gridtolerance="10"
     inkscape:snap-global="false"
     inkscape:window-width="2048"
     inkscape:window-height="1026"
     inkscape:window-x="0"
     inkscape:window-y="1"
     inkscape:window-maximized="1">
    <inkscape:grid
       type="xygrid"
       id="grid2995"
       empspacing="5"
       visible="true"
       enabled="true"
       snapvisiblegridlinesonly="true" />
  </sodipodi:namedview>
  <metadata
     id="metadata2992">
    <rdf:RDF>
      <cc:Work
         rdf:about="">
        <dc:format>image/svg+xml</dc:format>
        <dc:type
           rdf:resource="http://purl.org/dc/dcmitype/StillImage" />
        <dc:title></dc:title>
      </cc:Work>
    </rdf:RDF>
  </metadata>
  <g
     id="layer1"
     inkscape:label="Layer 1"
     inkscape:groupmode="layer">
    <path
       style="fill:#f9f9fa;fill-opacity:0.00392157;stroke:#d7d7db;stroke-width:2;stroke-miterlimit:4;stroke-dasharray:none;stroke-dashoffset:0;stroke-opacity:1"
       d="M 5,13.960746 V 3 H 31 V 24 H 19.869971"
       id="rect3765"
       inkscape:connector-curvature="0"
       sodipodi:nodetypes="ccccc" />
    <path
       style="fill:#d7d7db;fill-opacity:1;fill-rule:nonzero;stroke:#d7d7db;stroke-width:0.80446595;stroke-miterlimit:4;stroke-dasharray:none;stroke-dashoffset:0;stroke-opacity:1"
       d="M 7.4023438,5.4023438 V 8.5976562 H 28.597656 V 5.4023438 Z m 17.1932672,0.2024771 3.819941,0.00558 -0.02791,2.7959397 -3.780871,-0.011163 z"
       id="rect3791"
       inkscape:connector-curvature="0"
       sodipodi:nodetypes="cccccccccc" />
    <path
       sodipodi:type="arc"
       style="fill:#f9f9fa;fill-opacity:0.00392157;fill-rule:nonzero;stroke:#d7d7db;stroke-width:2.20000005;stroke-linecap:square;stroke-linejoin:bevel;stroke-miterlimit:4;stroke-opacity:1;stroke-dasharray:none;stroke-dashoffset:0"
       id="path4417"
       sodipodi:cx="16.5"
       sodipodi:cy="16.5"
       sodipodi:rx="9.5"
       sodipodi:ry="9.5"
       d="m 26,16.5 a 9.5,9.5 0 1 1 -19,0 9.5,9.5 0 1 1 19,0 z"
       transform="translate(-5.9622177,5.0515206)" />
    <path
       style="fill:none;stroke:#d7d7db;stroke-width:1;stroke-linecap:butt;stroke-linejoin:miter;stroke-miterlimit:4;stroke-opacity:1;stroke-dasharray:none"
       d="m 1.3179983,20.134358 1.50995,1.305186 c 1.199282,0.620789 3.03764,0.813661 4.016859,1.053523 1.034972,0.253519 2.2139164,0.2746 3.6452687,0.270704 0,0 2.289004,-0.100387 4.228986,-0.431193 2.39865,-0.409018 4.055635,-1.308904 4.055635,-1.308904 l 0.891945,-0.889316"
       id="path4946"
       inkscape:connector-curvature="0"
       sodipodi:nodetypes="ccscscc" />
    <path
       style="fill:none;stroke:#d7d7db;stroke-width:1;stroke-linecap:butt;stroke-linejoin:miter;stroke-miterlimit:4;stroke-opacity:1;stroke-dasharray:none"
       d="m 2.1434893,15.915299 1.888831,1.242039 c 1.253337,0.611696 1.774702,0.497926 2.753921,0.737788 1.034972,0.253518 2.3402104,0.274599 3.7715627,0.270703 0,0 1.558152,0.03046 3.471223,-0.431192 1.956621,-0.472165 2.034934,-0.614288 2.034934,-0.614288 l 2.281176,-1.268198"
       id="path4946-6"
       inkscape:connector-curvature="0"
       sodipodi:nodetypes="ccscscc" />
    <path
       style="fill:none;stroke:#d7d7db;stroke-width:1.11099994;stroke-linecap:butt;stroke-linejoin:miter;stroke-miterlimit:4;stroke-opacity:1;stroke-dasharray:none"
       d="m 1.8646113,24.731506 2.767304,1.426496 c 1.279961,0.609566 1.812402,0.55912 2.812422,0.798146 1.0569584,0.252636 1.9385044,0.273643 3.4002637,0.269761 0,0 1.075345,0.156208 3.029056,-0.303838 1.998185,-0.47052 2.465091,-0.80093 2.465091,-0.80093 L 19.57122,24.22809"
       id="path4946-6-0"
       inkscape:connector-curvature="0"
       sodipodi:nodetypes="ccscscc" />
    <path
       style="fill:none;stroke:#d7d7db;stroke-width:1;stroke-linecap:butt;stroke-linejoin:miter;stroke-miterlimit:4;stroke-opacity:1;stroke-dasharray:none"
       d="m 8.6340667,12.624176 c -0.7110184,2.258096 -0.8632444,2.989588 -1.4497334,5.56484 -0.398126,1.732494 -0.37353,2.598229 -0.381527,4.47552 0.01744,1.569624 0.108718,2.593109 0.562269,4.638744 0.260071,1.301909 0.621731,2.080699 1.2058444,3.570356"
       id="path4984"
       inkscape:connector-curvature="0"
       sodipodi:nodetypes="ccccc" />
    <path
       style="fill:none;stroke:#d7d7db;stroke-width:1;stroke-linecap:butt;stroke-linejoin:miter;stroke-miterlimit:4;stroke-opacity:1;stroke-dasharray:none"
       d="m 12.360666,12.540291 c 0.711018,2.258094 0.863244,2.989586 1.449733,5.564839 0.398127,1.732494 0.37353,2.598229 0.381528,4.475521 -0.01744,1.569624 -0.108719,2.593109 -0.56227,4.638743 -0.260071,1.301909 -0.621731,2.080699 -1.205844,3.570356"
       id="path4984-8"
       inkscape:connector-curvature="0"
       sodipodi:nodetypes="ccccc" />
  </g>
</svg>
