<?xml version="1.0" encoding="UTF-8" standalone="no"?>
<svg
   xmlns:dc="http://purl.org/dc/elements/1.1/"
   xmlns:cc="http://creativecommons.org/ns#"
   xmlns:rdf="http://www.w3.org/1999/02/22-rdf-syntax-ns#"
   xmlns:svg="http://www.w3.org/2000/svg"
   xmlns="http://www.w3.org/2000/svg"
   xmlns:sodipodi="http://sodipodi.sourceforge.net/DTD/sodipodi-0.dtd"
   xmlns:inkscape="http://www.inkscape.org/namespaces/inkscape"
   width="32px"
   height="32px"
   id="svg2987"
   version="1.1"
   inkscape:version="1.0.1 (c497b03c, 2020-09-10)"
   sodipodi:docname="window-with-exclamation32_reverse.svg"
   inkscape:export-filename="/Users/aecreations/Documents/Graphics/Inkscape/Panic Button/Export/window32.png"
   inkscape:export-xdpi="90"
   inkscape:export-ydpi="90">
  <defs
     id="defs2989">
    <filter
       inkscape:collect="always"
       style="color-interpolation-filters:sRGB"
       id="filter5347"
       x="-0.0087479998"
       width="1.017496"
       y="-0.010935"
       height="1.02187">
      <feGaussianBlur
         inkscape:collect="always"
         stdDeviation="0.10935"
         id="feGaussianBlur5349" />
    </filter>
    <filter
       inkscape:collect="always"
       style="color-interpolation-filters:sRGB"
       id="filter5351"
       x="-0.01046979"
       width="1.0209396"
       y="-0.085585533"
       height="1.1711711">
      <feGaussianBlur
         inkscape:collect="always"
         stdDeviation="0.10935"
         id="feGaussianBlur5353" />
    </filter>
  </defs>
  <sodipodi:namedview
     id="base"
     pagecolor="#808080"
     bordercolor="#666666"
     borderopacity="1.0"
     inkscape:pageopacity="0"
     inkscape:pageshadow="2"
     inkscape:zoom="15.836083"
     inkscape:cx="18.856293"
     inkscape:cy="16"
     inkscape:current-layer="layer1"
     showgrid="true"
     inkscape:grid-bbox="true"
     inkscape:document-units="px"
     objecttolerance="20"
     gridtolerance="10"
     inkscape:snap-global="false"
     inkscape:window-width="2048"
     inkscape:window-height="1026"
     inkscape:window-x="0"
     inkscape:window-y="23"
     inkscape:window-maximized="1"
     inkscape:document-rotation="0">
    <inkscape:grid
       type="xygrid"
       id="grid2995"
       empspacing="5"
       visible="true"
       enabled="true"
       snapvisiblegridlinesonly="true" />
  </sodipodi:namedview>
  <metadata
     id="metadata2992">
    <rdf:RDF>
      <cc:Work
         rdf:about="">
        <dc:format>image/svg+xml</dc:format>
        <dc:type
           rdf:resource="http://purl.org/dc/dcmitype/StillImage" />
        <dc:title></dc:title>
      </cc:Work>
    </rdf:RDF>
  </metadata>
  <g
     id="layer1"
     inkscape:label="Layer 1"
     inkscape:groupmode="layer">
    <rect
       inkscape:export-ydpi="90"
       inkscape:export-xdpi="90"
       y="4"
       x="1"
       height="24"
       width="30.000002"
       id="rect3765"
       style="fill:#f9f9fa;fill-opacity:0.00392157;stroke:#ffffff;stroke-width:2;stroke-miterlimit:4;stroke-dasharray:none;stroke-dashoffset:0;stroke-opacity:1;filter:url(#filter5347)" />
    <path
       sodipodi:nodetypes="cccccccccc"
       inkscape:connector-curvature="0"
       id="rect3791"
       d="M 3.4667969,6.4667969 V 9.5332031 H 28.533203 V 6.4667969 Z m 21.0925221,0.08251 3.905138,-0.00766 -4e-6,2.9311019 h -3.905138 z"
       style="fill:#ffffff;fill-opacity:1;fill-rule:nonzero;stroke:#ffffff;stroke-width:0.933;stroke-miterlimit:4;stroke-dasharray:none;stroke-dashoffset:0;stroke-opacity:1;filter:url(#filter5351)" />
    <text
       xml:space="preserve"
       style="font-style:normal;font-weight:bold;line-height:0%;font-family:'Arial Rounded MT Bold';-inkscape-font-specification:'Sans Bold';letter-spacing:0px;word-spacing:0px;fill:#000000;fill-opacity:1;stroke:none"
       x="12.055937"
       y="26.016684"
       id="text4425"><tspan
         sodipodi:role="line"
         id="tspan4427"
         x="12.055937"
         y="26.016684"
         style="font-size:24px;line-height:1.25"> </tspan></text>
    <g
       transform="scale(1.3511124,0.74013088)"
       style="font-size:24.39247131000000124px;font-style:normal;font-weight:bold;line-height:125%;letter-spacing:0px;word-spacing:0px;fill:#ffffff;fill-opacity:1;stroke:none;font-family:Arial Rounded MT Bold;-inkscape-font-specification:Sans Bold"
       id="text4429">
      <path
         d="m 10.509929,25.626668 -0.381133,-5.705076 c -0.07146,-1.111621 -0.107196,-1.909616 -0.107193,-2.393987 -3e-6,-0.659025 0.170713,-1.171171 0.512146,-1.53644 0.349369,-0.373175 0.805933,-0.55977 1.369695,-0.559788 0.682857,1.8e-5 1.139421,0.238225 1.369694,0.714623 0.230262,0.468492 0.345396,1.147383 0.345401,2.036676 -5e-6,0.524072 -0.0278,1.056068 -0.08337,1.595992 l -0.512147,5.87182 c -0.05559,0.69875 -0.174691,1.234717 -0.357311,1.607902 -0.182631,0.373198 -0.484361,0.559794 -0.90519,0.559789 -0.428777,5e-6 -0.726537,-0.178651 -0.893279,-0.535968 -0.166748,-0.365245 -0.285852,-0.917093 -0.357311,-1.655543 m 1.181841,8.434264 c -0.484359,-1e-6 -0.62874,-0.154835 -0.993989,-0.464505 -0.357314,-0.31761 -0.676181,-1.355524 -0.676178,-1.919283 -3e-6,-0.492294 0.123976,-1.165113 0.465409,-1.506547 0.349369,-0.349368 0.820909,-0.524053 1.321149,-0.524057 0.500231,4e-6 0.831561,0.174689 1.180937,0.524057 0.357306,0.341434 0.629436,1.014253 0.629441,1.506547 -5e-6,0.555819 -0.318872,1.675082 -0.676178,1.992691 -0.357317,0.31761 -0.287451,0.311841 -0.763862,0.311842"
         id="path4946"
         inkscape:connector-curvature="0"
         sodipodi:nodetypes="cccccccccsccccccssccsc"
         style="fill:#ffffff;fill-opacity:1" />
    </g>
  </g>
</svg>
