<?xml version="1.0" encoding="UTF-8"?>
<svg width="32px" height="32px" version="1.1" xmlns="http://www.w3.org/2000/svg">
 <text x="12.055937" y="26.016684" fill="#000000" font-family="'Arial Rounded MT Bold'" font-weight="bold" letter-spacing="0px" word-spacing="0px" style="line-height:0%" xml:space="preserve"><tspan x="12.055937" y="26.016684" font-size="24px" style="line-height:1.25"> </tspan></text>
 <g transform="scale(1.3511 .74013)" fill="#fff">
  <path d="m10.51 25.627-0.38113-5.7051c-0.07146-1.1116-0.1072-1.9096-0.10719-2.394-3e-6 -0.65902 0.17071-1.1712 0.51215-1.5364 0.34937-0.37318 0.80593-0.55977 1.3697-0.55979 0.68286 1.8e-5 1.1394 0.23822 1.3697 0.71462 0.23026 0.46849 0.3454 1.1474 0.3454 2.0367-5e-6 0.52407-0.0278 1.0561-0.08337 1.596l-0.51215 5.8718c-0.05559 0.69875-0.17469 1.2347-0.35731 1.6079-0.18263 0.3732-0.48436 0.55979-0.90519 0.55979-0.42878 5e-6 -0.72654-0.17865-0.89328-0.53597-0.16675-0.36524-0.28585-0.91709-0.35731-1.6555m1.1818 8.4343c-0.48436-1e-6 -0.62874-0.15484-0.99399-0.4645-0.35731-0.31761-0.67618-1.3555-0.67618-1.9193-3e-6 -0.49229 0.12398-1.1651 0.46541-1.5065 0.34937-0.34937 0.82091-0.52405 1.3211-0.52406 0.50023 4e-6 0.83156 0.17469 1.1809 0.52406 0.35731 0.34143 0.62944 1.0143 0.62944 1.5065-5e-6 0.55582-0.31887 1.6751-0.67618 1.9927-0.35732 0.31761-0.28745 0.31184-0.76386 0.31184" fill="#fff"/>
 </g>
 <rect x="1" y="4" width="30" height="24" fill="#f9f9fa" fill-opacity=".0039216" stroke="#fff" stroke-width="2"/>
 <path d="m3.4668 6.4668v3.0664h25.066v-3.0664zm21.093 0.08251 3.9051-0.00766-4e-6 2.9311h-3.9051z" fill="#fff" stroke="#fff" stroke-width=".933"/>
</svg>
